G04 #@! TF.GenerationSoftware,KiCad,Pcbnew,6.0.9-8da3e8f707~116~ubuntu20.04.1*
G04 #@! TF.CreationDate,2023-03-05T00:07:15+01:00*
G04 #@! TF.ProjectId,accl_magn_pmod,6163636c-5f6d-4616-976e-5f706d6f642e,rev?*
G04 #@! TF.SameCoordinates,Original*
G04 #@! TF.FileFunction,Legend,Top*
G04 #@! TF.FilePolarity,Positive*
%FSLAX46Y46*%
G04 Gerber Fmt 4.6, Leading zero omitted, Abs format (unit mm)*
G04 Created by KiCad (PCBNEW 6.0.9-8da3e8f707~116~ubuntu20.04.1) date 2023-03-05 00:07:15*
%MOMM*%
%LPD*%
G01*
G04 APERTURE LIST*
G04 Aperture macros list*
%AMRoundRect*
0 Rectangle with rounded corners*
0 $1 Rounding radius*
0 $2 $3 $4 $5 $6 $7 $8 $9 X,Y pos of 4 corners*
0 Add a 4 corners polygon primitive as box body*
4,1,4,$2,$3,$4,$5,$6,$7,$8,$9,$2,$3,0*
0 Add four circle primitives for the rounded corners*
1,1,$1+$1,$2,$3*
1,1,$1+$1,$4,$5*
1,1,$1+$1,$6,$7*
1,1,$1+$1,$8,$9*
0 Add four rect primitives between the rounded corners*
20,1,$1+$1,$2,$3,$4,$5,0*
20,1,$1+$1,$4,$5,$6,$7,0*
20,1,$1+$1,$6,$7,$8,$9,0*
20,1,$1+$1,$8,$9,$2,$3,0*%
G04 Aperture macros list end*
%ADD10C,0.150000*%
%ADD11C,0.120000*%
%ADD12C,3.000000*%
%ADD13R,1.700000X1.700000*%
%ADD14C,1.700000*%
%ADD15O,1.700000X1.700000*%
%ADD16RoundRect,0.237500X-0.287500X-0.237500X0.287500X-0.237500X0.287500X0.237500X-0.287500X0.237500X0*%
G04 APERTURE END LIST*
D10*
X119959523Y-63793714D02*
X119959523Y-64603238D01*
X119911904Y-64698476D01*
X119864285Y-64746095D01*
X119769047Y-64793714D01*
X119626190Y-64793714D01*
X119530952Y-64746095D01*
X119959523Y-64412761D02*
X119864285Y-64460380D01*
X119673809Y-64460380D01*
X119578571Y-64412761D01*
X119530952Y-64365142D01*
X119483333Y-64269904D01*
X119483333Y-63984190D01*
X119530952Y-63888952D01*
X119578571Y-63841333D01*
X119673809Y-63793714D01*
X119864285Y-63793714D01*
X119959523Y-63841333D01*
X120435714Y-63793714D02*
X120435714Y-64460380D01*
X120435714Y-63888952D02*
X120483333Y-63841333D01*
X120578571Y-63793714D01*
X120721428Y-63793714D01*
X120816666Y-63841333D01*
X120864285Y-63936571D01*
X120864285Y-64460380D01*
X121769047Y-64460380D02*
X121769047Y-63460380D01*
X121769047Y-64412761D02*
X121673809Y-64460380D01*
X121483333Y-64460380D01*
X121388095Y-64412761D01*
X121340476Y-64365142D01*
X121292857Y-64269904D01*
X121292857Y-63984190D01*
X121340476Y-63888952D01*
X121388095Y-63841333D01*
X121483333Y-63793714D01*
X121673809Y-63793714D01*
X121769047Y-63841333D01*
X116149428Y-62975904D02*
X116149428Y-62214000D01*
X116530380Y-62594952D02*
X115768476Y-62594952D01*
X115530380Y-61833047D02*
X115530380Y-61214000D01*
X115911333Y-61547333D01*
X115911333Y-61404476D01*
X115958952Y-61309238D01*
X116006571Y-61261619D01*
X116101809Y-61214000D01*
X116339904Y-61214000D01*
X116435142Y-61261619D01*
X116482761Y-61309238D01*
X116530380Y-61404476D01*
X116530380Y-61690190D01*
X116482761Y-61785428D01*
X116435142Y-61833047D01*
X115530380Y-60928285D02*
X116530380Y-60594952D01*
X115530380Y-60261619D01*
X115530380Y-60023523D02*
X115530380Y-59404476D01*
X115911333Y-59737809D01*
X115911333Y-59594952D01*
X115958952Y-59499714D01*
X116006571Y-59452095D01*
X116101809Y-59404476D01*
X116339904Y-59404476D01*
X116435142Y-59452095D01*
X116482761Y-59499714D01*
X116530380Y-59594952D01*
X116530380Y-59880666D01*
X116482761Y-59975904D01*
X116435142Y-60023523D01*
X115062095Y-90130380D02*
X115062095Y-90939904D01*
X115109714Y-91035142D01*
X115157333Y-91082761D01*
X115252571Y-91130380D01*
X115443047Y-91130380D01*
X115538285Y-91082761D01*
X115585904Y-91035142D01*
X115633523Y-90939904D01*
X115633523Y-90130380D01*
X116062095Y-90225619D02*
X116109714Y-90178000D01*
X116204952Y-90130380D01*
X116443047Y-90130380D01*
X116538285Y-90178000D01*
X116585904Y-90225619D01*
X116633523Y-90320857D01*
X116633523Y-90416095D01*
X116585904Y-90558952D01*
X116014476Y-91130380D01*
X116633523Y-91130380D01*
X127775928Y-102258761D02*
X127871166Y-102306380D01*
X128061642Y-102306380D01*
X128156880Y-102258761D01*
X128204500Y-102163523D01*
X128204500Y-102115904D01*
X128156880Y-102020666D01*
X128061642Y-101973047D01*
X127918785Y-101973047D01*
X127823547Y-101925428D01*
X127775928Y-101830190D01*
X127775928Y-101782571D01*
X127823547Y-101687333D01*
X127918785Y-101639714D01*
X128061642Y-101639714D01*
X128156880Y-101687333D01*
X129061642Y-102306380D02*
X129061642Y-101306380D01*
X129061642Y-102258761D02*
X128966404Y-102306380D01*
X128775928Y-102306380D01*
X128680690Y-102258761D01*
X128633071Y-102211142D01*
X128585452Y-102115904D01*
X128585452Y-101830190D01*
X128633071Y-101734952D01*
X128680690Y-101687333D01*
X128775928Y-101639714D01*
X128966404Y-101639714D01*
X129061642Y-101687333D01*
X129966404Y-102306380D02*
X129966404Y-101782571D01*
X129918785Y-101687333D01*
X129823547Y-101639714D01*
X129633071Y-101639714D01*
X129537833Y-101687333D01*
X129966404Y-102258761D02*
X129871166Y-102306380D01*
X129633071Y-102306380D01*
X129537833Y-102258761D01*
X129490214Y-102163523D01*
X129490214Y-102068285D01*
X129537833Y-101973047D01*
X129633071Y-101925428D01*
X129871166Y-101925428D01*
X129966404Y-101877809D01*
X128156880Y-96559714D02*
X128156880Y-97369238D01*
X128109261Y-97464476D01*
X128061642Y-97512095D01*
X127966404Y-97559714D01*
X127823547Y-97559714D01*
X127728309Y-97512095D01*
X128156880Y-97178761D02*
X128061642Y-97226380D01*
X127871166Y-97226380D01*
X127775928Y-97178761D01*
X127728309Y-97131142D01*
X127680690Y-97035904D01*
X127680690Y-96750190D01*
X127728309Y-96654952D01*
X127775928Y-96607333D01*
X127871166Y-96559714D01*
X128061642Y-96559714D01*
X128156880Y-96607333D01*
X128633071Y-96559714D02*
X128633071Y-97226380D01*
X128633071Y-96654952D02*
X128680690Y-96607333D01*
X128775928Y-96559714D01*
X128918785Y-96559714D01*
X129014023Y-96607333D01*
X129061642Y-96702571D01*
X129061642Y-97226380D01*
X129966404Y-97226380D02*
X129966404Y-96226380D01*
X129966404Y-97178761D02*
X129871166Y-97226380D01*
X129680690Y-97226380D01*
X129585452Y-97178761D01*
X129537833Y-97131142D01*
X129490214Y-97035904D01*
X129490214Y-96750190D01*
X129537833Y-96654952D01*
X129585452Y-96607333D01*
X129680690Y-96559714D01*
X129871166Y-96559714D01*
X129966404Y-96607333D01*
X127871166Y-94019714D02*
X128109261Y-94686380D01*
X128347357Y-94019714D01*
X129156880Y-94638761D02*
X129061642Y-94686380D01*
X128871166Y-94686380D01*
X128775928Y-94638761D01*
X128728309Y-94591142D01*
X128680690Y-94495904D01*
X128680690Y-94210190D01*
X128728309Y-94114952D01*
X128775928Y-94067333D01*
X128871166Y-94019714D01*
X129061642Y-94019714D01*
X129156880Y-94067333D01*
X130014023Y-94638761D02*
X129918785Y-94686380D01*
X129728309Y-94686380D01*
X129633071Y-94638761D01*
X129585452Y-94591142D01*
X129537833Y-94495904D01*
X129537833Y-94210190D01*
X129585452Y-94114952D01*
X129633071Y-94067333D01*
X129728309Y-94019714D01*
X129918785Y-94019714D01*
X130014023Y-94067333D01*
X127680690Y-104846380D02*
X127680690Y-103846380D01*
X127680690Y-104798761D02*
X127585452Y-104846380D01*
X127394976Y-104846380D01*
X127299738Y-104798761D01*
X127252119Y-104751142D01*
X127204500Y-104655904D01*
X127204500Y-104370190D01*
X127252119Y-104274952D01*
X127299738Y-104227333D01*
X127394976Y-104179714D01*
X127585452Y-104179714D01*
X127680690Y-104227333D01*
X128156880Y-104846380D02*
X128156880Y-104179714D01*
X128156880Y-104370190D02*
X128204500Y-104274952D01*
X128252119Y-104227333D01*
X128347357Y-104179714D01*
X128442595Y-104179714D01*
X129204500Y-104846380D02*
X129204500Y-103846380D01*
X129204500Y-104798761D02*
X129109261Y-104846380D01*
X128918785Y-104846380D01*
X128823547Y-104798761D01*
X128775928Y-104751142D01*
X128728309Y-104655904D01*
X128728309Y-104370190D01*
X128775928Y-104274952D01*
X128823547Y-104227333D01*
X128918785Y-104179714D01*
X129109261Y-104179714D01*
X129204500Y-104227333D01*
X129585452Y-104179714D02*
X129823547Y-104846380D01*
X130061642Y-104179714D02*
X129823547Y-104846380D01*
X129728309Y-105084476D01*
X129680690Y-105132095D01*
X129585452Y-105179714D01*
X128204500Y-99718761D02*
X128299738Y-99766380D01*
X128490214Y-99766380D01*
X128585452Y-99718761D01*
X128633071Y-99623523D01*
X128633071Y-99575904D01*
X128585452Y-99480666D01*
X128490214Y-99433047D01*
X128347357Y-99433047D01*
X128252119Y-99385428D01*
X128204500Y-99290190D01*
X128204500Y-99242571D01*
X128252119Y-99147333D01*
X128347357Y-99099714D01*
X128490214Y-99099714D01*
X128585452Y-99147333D01*
X129490214Y-99718761D02*
X129394976Y-99766380D01*
X129204500Y-99766380D01*
X129109261Y-99718761D01*
X129061642Y-99671142D01*
X129014023Y-99575904D01*
X129014023Y-99290190D01*
X129061642Y-99194952D01*
X129109261Y-99147333D01*
X129204500Y-99099714D01*
X129394976Y-99099714D01*
X129490214Y-99147333D01*
X130061642Y-99766380D02*
X129966404Y-99718761D01*
X129918785Y-99623523D01*
X129918785Y-98766380D01*
X118443809Y-99512380D02*
X118443809Y-98512380D01*
X118872380Y-99512380D02*
X118872380Y-98988571D01*
X118824761Y-98893333D01*
X118729523Y-98845714D01*
X118586666Y-98845714D01*
X118491428Y-98893333D01*
X118443809Y-98940952D01*
X119348571Y-99512380D02*
X119348571Y-98845714D01*
X119348571Y-98940952D02*
X119396190Y-98893333D01*
X119491428Y-98845714D01*
X119634285Y-98845714D01*
X119729523Y-98893333D01*
X119777142Y-98988571D01*
X119777142Y-99512380D01*
X119777142Y-98988571D02*
X119824761Y-98893333D01*
X119920000Y-98845714D01*
X120062857Y-98845714D01*
X120158095Y-98893333D01*
X120205714Y-98988571D01*
X120205714Y-99512380D01*
X121110476Y-99464761D02*
X121015238Y-99512380D01*
X120824761Y-99512380D01*
X120729523Y-99464761D01*
X120681904Y-99417142D01*
X120634285Y-99321904D01*
X120634285Y-99036190D01*
X120681904Y-98940952D01*
X120729523Y-98893333D01*
X120824761Y-98845714D01*
X121015238Y-98845714D01*
X121110476Y-98893333D01*
X122015238Y-98512380D02*
X121539047Y-98512380D01*
X121491428Y-98988571D01*
X121539047Y-98940952D01*
X121634285Y-98893333D01*
X121872380Y-98893333D01*
X121967619Y-98940952D01*
X122015238Y-98988571D01*
X122062857Y-99083809D01*
X122062857Y-99321904D01*
X122015238Y-99417142D01*
X121967619Y-99464761D01*
X121872380Y-99512380D01*
X121634285Y-99512380D01*
X121539047Y-99464761D01*
X121491428Y-99417142D01*
X122634285Y-98940952D02*
X122539047Y-98893333D01*
X122491428Y-98845714D01*
X122443809Y-98750476D01*
X122443809Y-98702857D01*
X122491428Y-98607619D01*
X122539047Y-98560000D01*
X122634285Y-98512380D01*
X122824761Y-98512380D01*
X122920000Y-98560000D01*
X122967619Y-98607619D01*
X123015238Y-98702857D01*
X123015238Y-98750476D01*
X122967619Y-98845714D01*
X122920000Y-98893333D01*
X122824761Y-98940952D01*
X122634285Y-98940952D01*
X122539047Y-98988571D01*
X122491428Y-99036190D01*
X122443809Y-99131428D01*
X122443809Y-99321904D01*
X122491428Y-99417142D01*
X122539047Y-99464761D01*
X122634285Y-99512380D01*
X122824761Y-99512380D01*
X122920000Y-99464761D01*
X122967619Y-99417142D01*
X123015238Y-99321904D01*
X123015238Y-99131428D01*
X122967619Y-99036190D01*
X122920000Y-98988571D01*
X122824761Y-98940952D01*
X123586666Y-98940952D02*
X123491428Y-98893333D01*
X123443809Y-98845714D01*
X123396190Y-98750476D01*
X123396190Y-98702857D01*
X123443809Y-98607619D01*
X123491428Y-98560000D01*
X123586666Y-98512380D01*
X123777142Y-98512380D01*
X123872380Y-98560000D01*
X123920000Y-98607619D01*
X123967619Y-98702857D01*
X123967619Y-98750476D01*
X123920000Y-98845714D01*
X123872380Y-98893333D01*
X123777142Y-98940952D01*
X123586666Y-98940952D01*
X123491428Y-98988571D01*
X123443809Y-99036190D01*
X123396190Y-99131428D01*
X123396190Y-99321904D01*
X123443809Y-99417142D01*
X123491428Y-99464761D01*
X123586666Y-99512380D01*
X123777142Y-99512380D01*
X123872380Y-99464761D01*
X123920000Y-99417142D01*
X123967619Y-99321904D01*
X123967619Y-99131428D01*
X123920000Y-99036190D01*
X123872380Y-98988571D01*
X123777142Y-98940952D01*
X124300952Y-98512380D02*
X124920000Y-98512380D01*
X124586666Y-98893333D01*
X124729523Y-98893333D01*
X124824761Y-98940952D01*
X124872380Y-98988571D01*
X124920000Y-99083809D01*
X124920000Y-99321904D01*
X124872380Y-99417142D01*
X124824761Y-99464761D01*
X124729523Y-99512380D01*
X124443809Y-99512380D01*
X124348571Y-99464761D01*
X124300952Y-99417142D01*
X125491428Y-99512380D02*
X125396190Y-99464761D01*
X125348571Y-99369523D01*
X125348571Y-98512380D01*
X123698095Y-83272380D02*
X123698095Y-84081904D01*
X123745714Y-84177142D01*
X123793333Y-84224761D01*
X123888571Y-84272380D01*
X124079047Y-84272380D01*
X124174285Y-84224761D01*
X124221904Y-84177142D01*
X124269523Y-84081904D01*
X124269523Y-83272380D01*
X125269523Y-84272380D02*
X124698095Y-84272380D01*
X124983809Y-84272380D02*
X124983809Y-83272380D01*
X124888571Y-83415238D01*
X124793333Y-83510476D01*
X124698095Y-83558095D01*
X119921976Y-82954761D02*
X120017214Y-83002380D01*
X120207690Y-83002380D01*
X120302928Y-82954761D01*
X120350547Y-82859523D01*
X120350547Y-82811904D01*
X120302928Y-82716666D01*
X120207690Y-82669047D01*
X120064833Y-82669047D01*
X119969595Y-82621428D01*
X119921976Y-82526190D01*
X119921976Y-82478571D01*
X119969595Y-82383333D01*
X120064833Y-82335714D01*
X120207690Y-82335714D01*
X120302928Y-82383333D01*
X121207690Y-83002380D02*
X121207690Y-82002380D01*
X121207690Y-82954761D02*
X121112452Y-83002380D01*
X120921976Y-83002380D01*
X120826738Y-82954761D01*
X120779119Y-82907142D01*
X120731500Y-82811904D01*
X120731500Y-82526190D01*
X120779119Y-82430952D01*
X120826738Y-82383333D01*
X120921976Y-82335714D01*
X121112452Y-82335714D01*
X121207690Y-82383333D01*
X122112452Y-83002380D02*
X122112452Y-82478571D01*
X122064833Y-82383333D01*
X121969595Y-82335714D01*
X121779119Y-82335714D01*
X121683880Y-82383333D01*
X122112452Y-82954761D02*
X122017214Y-83002380D01*
X121779119Y-83002380D01*
X121683880Y-82954761D01*
X121636261Y-82859523D01*
X121636261Y-82764285D01*
X121683880Y-82669047D01*
X121779119Y-82621428D01*
X122017214Y-82621428D01*
X122112452Y-82573809D01*
X120144166Y-67095714D02*
X120144166Y-67905238D01*
X120096547Y-68000476D01*
X120048928Y-68048095D01*
X119953690Y-68095714D01*
X119810833Y-68095714D01*
X119715595Y-68048095D01*
X120144166Y-67714761D02*
X120048928Y-67762380D01*
X119858452Y-67762380D01*
X119763214Y-67714761D01*
X119715595Y-67667142D01*
X119667976Y-67571904D01*
X119667976Y-67286190D01*
X119715595Y-67190952D01*
X119763214Y-67143333D01*
X119858452Y-67095714D01*
X120048928Y-67095714D01*
X120144166Y-67143333D01*
X120620357Y-67095714D02*
X120620357Y-67762380D01*
X120620357Y-67190952D02*
X120667976Y-67143333D01*
X120763214Y-67095714D01*
X120906071Y-67095714D01*
X121001309Y-67143333D01*
X121048928Y-67238571D01*
X121048928Y-67762380D01*
X121953690Y-67762380D02*
X121953690Y-66762380D01*
X121953690Y-67714761D02*
X121858452Y-67762380D01*
X121667976Y-67762380D01*
X121572738Y-67714761D01*
X121525119Y-67667142D01*
X121477500Y-67571904D01*
X121477500Y-67286190D01*
X121525119Y-67190952D01*
X121572738Y-67143333D01*
X121667976Y-67095714D01*
X121858452Y-67095714D01*
X121953690Y-67143333D01*
X119874357Y-69635714D02*
X120112452Y-70302380D01*
X120350547Y-69635714D01*
X121160071Y-70254761D02*
X121064833Y-70302380D01*
X120874357Y-70302380D01*
X120779119Y-70254761D01*
X120731500Y-70207142D01*
X120683880Y-70111904D01*
X120683880Y-69826190D01*
X120731500Y-69730952D01*
X120779119Y-69683333D01*
X120874357Y-69635714D01*
X121064833Y-69635714D01*
X121160071Y-69683333D01*
X122017214Y-70254761D02*
X121921976Y-70302380D01*
X121731500Y-70302380D01*
X121636261Y-70254761D01*
X121588642Y-70207142D01*
X121541023Y-70111904D01*
X121541023Y-69826190D01*
X121588642Y-69730952D01*
X121636261Y-69683333D01*
X121731500Y-69635714D01*
X121921976Y-69635714D01*
X122017214Y-69683333D01*
X119969595Y-75382380D02*
X119969595Y-74715714D01*
X119969595Y-74382380D02*
X119921976Y-74430000D01*
X119969595Y-74477619D01*
X120017214Y-74430000D01*
X119969595Y-74382380D01*
X119969595Y-74477619D01*
X120445785Y-74715714D02*
X120445785Y-75382380D01*
X120445785Y-74810952D02*
X120493404Y-74763333D01*
X120588642Y-74715714D01*
X120731500Y-74715714D01*
X120826738Y-74763333D01*
X120874357Y-74858571D01*
X120874357Y-75382380D01*
X121207690Y-74715714D02*
X121588642Y-74715714D01*
X121350547Y-74382380D02*
X121350547Y-75239523D01*
X121398166Y-75334761D01*
X121493404Y-75382380D01*
X121588642Y-75382380D01*
X122445785Y-75382380D02*
X121874357Y-75382380D01*
X122160071Y-75382380D02*
X122160071Y-74382380D01*
X122064833Y-74525238D01*
X121969595Y-74620476D01*
X121874357Y-74668095D01*
X119969595Y-77922380D02*
X119969595Y-77255714D01*
X119969595Y-76922380D02*
X119921976Y-76970000D01*
X119969595Y-77017619D01*
X120017214Y-76970000D01*
X119969595Y-76922380D01*
X119969595Y-77017619D01*
X120445785Y-77255714D02*
X120445785Y-77922380D01*
X120445785Y-77350952D02*
X120493404Y-77303333D01*
X120588642Y-77255714D01*
X120731500Y-77255714D01*
X120826738Y-77303333D01*
X120874357Y-77398571D01*
X120874357Y-77922380D01*
X121207690Y-77255714D02*
X121588642Y-77255714D01*
X121350547Y-76922380D02*
X121350547Y-77779523D01*
X121398166Y-77874761D01*
X121493404Y-77922380D01*
X121588642Y-77922380D01*
X121874357Y-77017619D02*
X121921976Y-76970000D01*
X122017214Y-76922380D01*
X122255309Y-76922380D01*
X122350547Y-76970000D01*
X122398166Y-77017619D01*
X122445785Y-77112857D01*
X122445785Y-77208095D01*
X122398166Y-77350952D01*
X121826738Y-77922380D01*
X122445785Y-77922380D01*
X120398166Y-72794761D02*
X120302928Y-72842380D01*
X120112452Y-72842380D01*
X120017214Y-72794761D01*
X119969595Y-72747142D01*
X119921976Y-72651904D01*
X119921976Y-72366190D01*
X119969595Y-72270952D01*
X120017214Y-72223333D01*
X120112452Y-72175714D01*
X120302928Y-72175714D01*
X120398166Y-72223333D01*
X120779119Y-72794761D02*
X120874357Y-72842380D01*
X121064833Y-72842380D01*
X121160071Y-72794761D01*
X121207690Y-72699523D01*
X121207690Y-72651904D01*
X121160071Y-72556666D01*
X121064833Y-72509047D01*
X120921976Y-72509047D01*
X120826738Y-72461428D01*
X120779119Y-72366190D01*
X120779119Y-72318571D01*
X120826738Y-72223333D01*
X120921976Y-72175714D01*
X121064833Y-72175714D01*
X121160071Y-72223333D01*
X119921976Y-85494761D02*
X120017214Y-85542380D01*
X120207690Y-85542380D01*
X120302928Y-85494761D01*
X120350547Y-85399523D01*
X120350547Y-85351904D01*
X120302928Y-85256666D01*
X120207690Y-85209047D01*
X120064833Y-85209047D01*
X119969595Y-85161428D01*
X119921976Y-85066190D01*
X119921976Y-85018571D01*
X119969595Y-84923333D01*
X120064833Y-84875714D01*
X120207690Y-84875714D01*
X120302928Y-84923333D01*
X121207690Y-85494761D02*
X121112452Y-85542380D01*
X120921976Y-85542380D01*
X120826738Y-85494761D01*
X120779119Y-85447142D01*
X120731500Y-85351904D01*
X120731500Y-85066190D01*
X120779119Y-84970952D01*
X120826738Y-84923333D01*
X120921976Y-84875714D01*
X121112452Y-84875714D01*
X121207690Y-84923333D01*
X121779119Y-85542380D02*
X121683880Y-85494761D01*
X121636261Y-85399523D01*
X121636261Y-84542380D01*
X127452380Y-78533333D02*
X126928571Y-78533333D01*
X126833333Y-78580952D01*
X126785714Y-78676190D01*
X126785714Y-78866666D01*
X126833333Y-78961904D01*
X127404761Y-78533333D02*
X127452380Y-78628571D01*
X127452380Y-78866666D01*
X127404761Y-78961904D01*
X127309523Y-79009523D01*
X127214285Y-79009523D01*
X127119047Y-78961904D01*
X127071428Y-78866666D01*
X127071428Y-78628571D01*
X127023809Y-78533333D01*
X127452380Y-77628571D02*
X126452380Y-77628571D01*
X127404761Y-77628571D02*
X127452380Y-77723809D01*
X127452380Y-77914285D01*
X127404761Y-78009523D01*
X127357142Y-78057142D01*
X127261904Y-78104761D01*
X126976190Y-78104761D01*
X126880952Y-78057142D01*
X126833333Y-78009523D01*
X126785714Y-77914285D01*
X126785714Y-77723809D01*
X126833333Y-77628571D01*
X127452380Y-77247619D02*
X126785714Y-76723809D01*
X126785714Y-77247619D02*
X127452380Y-76723809D01*
X127452380Y-76200000D02*
X127404761Y-76295238D01*
X127309523Y-76342857D01*
X126452380Y-76342857D01*
X126452380Y-75914285D02*
X126452380Y-75295238D01*
X126833333Y-75628571D01*
X126833333Y-75485714D01*
X126880952Y-75390476D01*
X126928571Y-75342857D01*
X127023809Y-75295238D01*
X127261904Y-75295238D01*
X127357142Y-75342857D01*
X127404761Y-75390476D01*
X127452380Y-75485714D01*
X127452380Y-75771428D01*
X127404761Y-75866666D01*
X127357142Y-75914285D01*
X126785714Y-74438095D02*
X127452380Y-74438095D01*
X126404761Y-74676190D02*
X127119047Y-74914285D01*
X127119047Y-74295238D01*
X126452380Y-73438095D02*
X126452380Y-73914285D01*
X126928571Y-73961904D01*
X126880952Y-73914285D01*
X126833333Y-73819047D01*
X126833333Y-73580952D01*
X126880952Y-73485714D01*
X126928571Y-73438095D01*
X127023809Y-73390476D01*
X127261904Y-73390476D01*
X127357142Y-73438095D01*
X127404761Y-73485714D01*
X127452380Y-73580952D01*
X127452380Y-73819047D01*
X127404761Y-73914285D01*
X127357142Y-73961904D01*
X119921976Y-80414761D02*
X120017214Y-80462380D01*
X120207690Y-80462380D01*
X120302928Y-80414761D01*
X120350547Y-80319523D01*
X120350547Y-80271904D01*
X120302928Y-80176666D01*
X120207690Y-80129047D01*
X120064833Y-80129047D01*
X119969595Y-80081428D01*
X119921976Y-79986190D01*
X119921976Y-79938571D01*
X119969595Y-79843333D01*
X120064833Y-79795714D01*
X120207690Y-79795714D01*
X120302928Y-79843333D01*
X121207690Y-80462380D02*
X121207690Y-79462380D01*
X121207690Y-80414761D02*
X121112452Y-80462380D01*
X120921976Y-80462380D01*
X120826738Y-80414761D01*
X120779119Y-80367142D01*
X120731500Y-80271904D01*
X120731500Y-79986190D01*
X120779119Y-79890952D01*
X120826738Y-79843333D01*
X120921976Y-79795714D01*
X121112452Y-79795714D01*
X121207690Y-79843333D01*
X121826738Y-80462380D02*
X121731500Y-80414761D01*
X121683880Y-80367142D01*
X121636261Y-80271904D01*
X121636261Y-79986190D01*
X121683880Y-79890952D01*
X121731500Y-79843333D01*
X121826738Y-79795714D01*
X121969595Y-79795714D01*
X122064833Y-79843333D01*
X122112452Y-79890952D01*
X122160071Y-79986190D01*
X122160071Y-80271904D01*
X122112452Y-80367142D01*
X122064833Y-80414761D01*
X121969595Y-80462380D01*
X121826738Y-80462380D01*
X122852380Y-90495333D02*
X123566666Y-90495333D01*
X123709523Y-90542952D01*
X123804761Y-90638190D01*
X123852380Y-90781047D01*
X123852380Y-90876285D01*
X123852380Y-90019142D02*
X122852380Y-90019142D01*
X122852380Y-89638190D01*
X122900000Y-89542952D01*
X122947619Y-89495333D01*
X123042857Y-89447714D01*
X123185714Y-89447714D01*
X123280952Y-89495333D01*
X123328571Y-89542952D01*
X123376190Y-89638190D01*
X123376190Y-90019142D01*
X123852380Y-88495333D02*
X123852380Y-89066761D01*
X123852380Y-88781047D02*
X122852380Y-88781047D01*
X122995238Y-88876285D01*
X123090476Y-88971523D01*
X123138095Y-89066761D01*
X132762666Y-60412380D02*
X132762666Y-61126666D01*
X132715047Y-61269523D01*
X132619809Y-61364761D01*
X132476952Y-61412380D01*
X132381714Y-61412380D01*
X133762666Y-61412380D02*
X133191238Y-61412380D01*
X133476952Y-61412380D02*
X133476952Y-60412380D01*
X133381714Y-60555238D01*
X133286476Y-60650476D01*
X133191238Y-60698095D01*
X118641904Y-88684380D02*
X118641904Y-87684380D01*
X118880000Y-87684380D01*
X119022857Y-87732000D01*
X119118095Y-87827238D01*
X119165714Y-87922476D01*
X119213333Y-88112952D01*
X119213333Y-88255809D01*
X119165714Y-88446285D01*
X119118095Y-88541523D01*
X119022857Y-88636761D01*
X118880000Y-88684380D01*
X118641904Y-88684380D01*
X120165714Y-88684380D02*
X119594285Y-88684380D01*
X119880000Y-88684380D02*
X119880000Y-87684380D01*
X119784761Y-87827238D01*
X119689523Y-87922476D01*
X119594285Y-87970095D01*
D11*
X133477000Y-92329000D02*
X114977000Y-92329000D01*
X114977000Y-92329000D02*
X114977000Y-106299000D01*
X114977000Y-106299000D02*
X133477000Y-106299000D01*
X133477000Y-106299000D02*
X133477000Y-92329000D01*
X116205000Y-86995000D02*
X132205000Y-86995000D01*
X132205000Y-86995000D02*
X132205000Y-65405000D01*
X132205000Y-65405000D02*
X116205000Y-65405000D01*
X116205000Y-65405000D02*
X116205000Y-86995000D01*
X132140000Y-90992000D02*
X132140000Y-88332000D01*
X127000000Y-90992000D02*
X132140000Y-90992000D01*
X125730000Y-90992000D02*
X124400000Y-90992000D01*
X127000000Y-88332000D02*
X132140000Y-88332000D01*
X124400000Y-90992000D02*
X124400000Y-89662000D01*
X127000000Y-90992000D02*
X127000000Y-88332000D01*
X130430000Y-61187071D02*
X130430000Y-60732929D01*
X121030000Y-61187071D02*
X121030000Y-60732929D01*
X125350000Y-61187071D02*
X125350000Y-60732929D01*
X120270000Y-58647071D02*
X120270000Y-58250000D01*
X121030000Y-58647071D02*
X121030000Y-58250000D01*
X120270000Y-61187071D02*
X120270000Y-60732929D01*
X118110000Y-63500000D02*
X116840000Y-63500000D01*
X131190000Y-61187071D02*
X131190000Y-60732929D01*
X122810000Y-58647071D02*
X122810000Y-58250000D01*
X126110000Y-61187071D02*
X126110000Y-60732929D01*
X125350000Y-58647071D02*
X125350000Y-58250000D01*
X116840000Y-63500000D02*
X116840000Y-62230000D01*
X128650000Y-58647071D02*
X128650000Y-58250000D01*
X131190000Y-58647071D02*
X131190000Y-58250000D01*
X127890000Y-61187071D02*
X127890000Y-60732929D01*
X122810000Y-61187071D02*
X122810000Y-60732929D01*
X117730000Y-58647071D02*
X117730000Y-58250000D01*
X127890000Y-58647071D02*
X127890000Y-58250000D01*
X123570000Y-58647071D02*
X123570000Y-58250000D01*
X128650000Y-61187071D02*
X128650000Y-60732929D01*
X126110000Y-58647071D02*
X126110000Y-58250000D01*
X130430000Y-58647071D02*
X130430000Y-58250000D01*
X117730000Y-61120000D02*
X117730000Y-60732929D01*
X118490000Y-61120000D02*
X118490000Y-60732929D01*
X118490000Y-58647071D02*
X118490000Y-58250000D01*
X123570000Y-61187071D02*
X123570000Y-60732929D01*
X120180000Y-88927000D02*
X117720000Y-88927000D01*
X117720000Y-90397000D02*
X120180000Y-90397000D01*
X117720000Y-88927000D02*
X117720000Y-90397000D01*
%LPC*%
D12*
X117627400Y-103621400D03*
X117627400Y-95021400D03*
D13*
X131572000Y-94234000D03*
D14*
X131572000Y-96774000D03*
X131572000Y-99314000D03*
X131572000Y-101854000D03*
X131572000Y-104394000D03*
D12*
X129540000Y-68580000D03*
X129540000Y-83820000D03*
D13*
X118110000Y-67310000D03*
D14*
X118110000Y-69850000D03*
X118110000Y-72390000D03*
X118110000Y-74930000D03*
X118110000Y-77470000D03*
X118110000Y-80010000D03*
X118110000Y-82550000D03*
X118110000Y-85090000D03*
D13*
X125730000Y-89662000D03*
D15*
X128270000Y-89662000D03*
X130810000Y-89662000D03*
D13*
X118110000Y-62230000D03*
D15*
X118110000Y-59690000D03*
X120650000Y-62230000D03*
X120650000Y-59690000D03*
X123190000Y-62230000D03*
X123190000Y-59690000D03*
X125730000Y-62230000D03*
X125730000Y-59690000D03*
X128270000Y-62230000D03*
X128270000Y-59690000D03*
X130810000Y-62230000D03*
X130810000Y-59690000D03*
D16*
X118505000Y-89662000D03*
X120255000Y-89662000D03*
M02*
