M48
; DRILL file {KiCad 6.0.9-8da3e8f707~116~ubuntu20.04.1} date ned 05 mar 2023 00:07:35
; FORMAT={-:-/ absolute / metric / decimal}
; #@! TF.CreationDate,2023-03-05T00:07:35+01:00
; #@! TF.GenerationSoftware,Kicad,Pcbnew,6.0.9-8da3e8f707~116~ubuntu20.04.1
; #@! TF.FileFunction,Plated,1,2,PTH
FMAT,2
METRIC
; #@! TA.AperFunction,Plated,PTH,ViaDrill
T1C0.400
; #@! TA.AperFunction,Plated,PTH,ComponentDrill
T2C1.000
%
G90
G05
T1
X121.394Y-89.662
T2
X118.11Y-59.69
X118.11Y-62.23
X118.11Y-67.31
X118.11Y-69.85
X118.11Y-72.39
X118.11Y-74.93
X118.11Y-77.47
X118.11Y-80.01
X118.11Y-82.55
X118.11Y-85.09
X120.65Y-59.69
X120.65Y-62.23
X123.19Y-59.69
X123.19Y-62.23
X125.73Y-59.69
X125.73Y-62.23
X125.73Y-89.662
X128.27Y-59.69
X128.27Y-62.23
X128.27Y-89.662
X130.81Y-59.69
X130.81Y-62.23
X130.81Y-89.662
X131.572Y-94.234
X131.572Y-96.774
X131.572Y-99.314
X131.572Y-101.854
X131.572Y-104.394
T0
M30
