G04 #@! TF.GenerationSoftware,KiCad,Pcbnew,6.0.9-8da3e8f707~116~ubuntu20.04.1*
G04 #@! TF.CreationDate,2023-03-05T00:07:15+01:00*
G04 #@! TF.ProjectId,accl_magn_pmod,6163636c-5f6d-4616-976e-5f706d6f642e,rev?*
G04 #@! TF.SameCoordinates,Original*
G04 #@! TF.FileFunction,Copper,L2,Bot*
G04 #@! TF.FilePolarity,Positive*
%FSLAX46Y46*%
G04 Gerber Fmt 4.6, Leading zero omitted, Abs format (unit mm)*
G04 Created by KiCad (PCBNEW 6.0.9-8da3e8f707~116~ubuntu20.04.1) date 2023-03-05 00:07:15*
%MOMM*%
%LPD*%
G01*
G04 APERTURE LIST*
G04 Aperture macros list*
%AMRoundRect*
0 Rectangle with rounded corners*
0 $1 Rounding radius*
0 $2 $3 $4 $5 $6 $7 $8 $9 X,Y pos of 4 corners*
0 Add a 4 corners polygon primitive as box body*
4,1,4,$2,$3,$4,$5,$6,$7,$8,$9,$2,$3,0*
0 Add four circle primitives for the rounded corners*
1,1,$1+$1,$2,$3*
1,1,$1+$1,$4,$5*
1,1,$1+$1,$6,$7*
1,1,$1+$1,$8,$9*
0 Add four rect primitives between the rounded corners*
20,1,$1+$1,$2,$3,$4,$5,0*
20,1,$1+$1,$4,$5,$6,$7,0*
20,1,$1+$1,$6,$7,$8,$9,0*
20,1,$1+$1,$8,$9,$2,$3,0*%
G04 Aperture macros list end*
G04 #@! TA.AperFunction,ComponentPad*
%ADD10R,1.700000X1.700000*%
G04 #@! TD*
G04 #@! TA.AperFunction,ComponentPad*
%ADD11C,1.700000*%
G04 #@! TD*
G04 #@! TA.AperFunction,SMDPad,CuDef*
%ADD12RoundRect,0.237500X-0.250000X-0.237500X0.250000X-0.237500X0.250000X0.237500X-0.250000X0.237500X0*%
G04 #@! TD*
G04 #@! TA.AperFunction,SMDPad,CuDef*
%ADD13RoundRect,0.237500X0.250000X0.237500X-0.250000X0.237500X-0.250000X-0.237500X0.250000X-0.237500X0*%
G04 #@! TD*
G04 #@! TA.AperFunction,SMDPad,CuDef*
%ADD14RoundRect,0.237500X0.237500X-0.250000X0.237500X0.250000X-0.237500X0.250000X-0.237500X-0.250000X0*%
G04 #@! TD*
G04 #@! TA.AperFunction,ComponentPad*
%ADD15O,1.700000X1.700000*%
G04 #@! TD*
G04 #@! TA.AperFunction,SMDPad,CuDef*
%ADD16RoundRect,0.237500X-0.237500X0.300000X-0.237500X-0.300000X0.237500X-0.300000X0.237500X0.300000X0*%
G04 #@! TD*
G04 #@! TA.AperFunction,SMDPad,CuDef*
%ADD17RoundRect,0.237500X0.237500X-0.300000X0.237500X0.300000X-0.237500X0.300000X-0.237500X-0.300000X0*%
G04 #@! TD*
G04 #@! TA.AperFunction,ViaPad*
%ADD18C,0.800000*%
G04 #@! TD*
G04 #@! TA.AperFunction,Conductor*
%ADD19C,0.250000*%
G04 #@! TD*
G04 APERTURE END LIST*
D10*
X131572000Y-94234000D03*
D11*
X131572000Y-96774000D03*
X131572000Y-99314000D03*
X131572000Y-101854000D03*
X131572000Y-104394000D03*
D10*
X118110000Y-67310000D03*
D11*
X118110000Y-69850000D03*
X118110000Y-72390000D03*
X118110000Y-74930000D03*
X118110000Y-77470000D03*
X118110000Y-80010000D03*
X118110000Y-82550000D03*
X118110000Y-85090000D03*
D12*
X126849500Y-104394000D03*
X128674500Y-104394000D03*
X126849500Y-99314000D03*
X128674500Y-99314000D03*
X126849500Y-102108000D03*
X128674500Y-102108000D03*
D13*
X122578500Y-74930000D03*
X120753500Y-74930000D03*
X120753500Y-72390000D03*
X122578500Y-72390000D03*
D12*
X120753500Y-82550000D03*
X122578500Y-82550000D03*
D13*
X122578500Y-80010000D03*
X120753500Y-80010000D03*
X122578500Y-77470000D03*
X120753500Y-77470000D03*
D14*
X122174000Y-93876500D03*
X122174000Y-92051500D03*
D10*
X125730000Y-89662000D03*
D15*
X128270000Y-89662000D03*
X130810000Y-89662000D03*
D10*
X118110000Y-62230000D03*
D15*
X118110000Y-59690000D03*
X120650000Y-62230000D03*
X120650000Y-59690000D03*
X123190000Y-62230000D03*
X123190000Y-59690000D03*
X125730000Y-62230000D03*
X125730000Y-59690000D03*
X128270000Y-62230000D03*
X128270000Y-59690000D03*
X130810000Y-62230000D03*
X130810000Y-59690000D03*
D16*
X128524000Y-94641500D03*
X128524000Y-96366500D03*
D17*
X120904000Y-69442500D03*
X120904000Y-67717500D03*
D18*
X121393900Y-89662000D03*
D19*
X120753500Y-80010000D02*
X118110000Y-80010000D01*
X120753500Y-80010000D02*
X120753500Y-82550000D01*
X120753500Y-77470000D02*
X118110000Y-77470000D01*
X121666000Y-78382500D02*
X120753500Y-77470000D01*
X121666000Y-80397300D02*
X121666000Y-78382500D01*
X122450000Y-81181300D02*
X121666000Y-80397300D01*
X123504600Y-81181300D02*
X122450000Y-81181300D01*
X130810000Y-88486700D02*
X123504600Y-81181300D01*
X130810000Y-89662000D02*
X130810000Y-88486700D01*
X122578500Y-85335200D02*
X122578500Y-82550000D01*
X125730000Y-88486700D02*
X122578500Y-85335200D01*
X125730000Y-89662000D02*
X125730000Y-88486700D01*
X128674500Y-104394000D02*
X131572000Y-104394000D01*
X132766000Y-103200000D02*
X131572000Y-104394000D01*
X132766000Y-62454000D02*
X132766000Y-103200000D01*
X131177300Y-60865300D02*
X132766000Y-62454000D01*
X130810000Y-60865300D02*
X131177300Y-60865300D01*
X130810000Y-59690000D02*
X130810000Y-60865300D01*
X130810000Y-62230000D02*
X130810000Y-63405300D01*
X129738200Y-63405300D02*
X120753500Y-72390000D01*
X130810000Y-63405300D02*
X129738200Y-63405300D01*
X120753500Y-72390000D02*
X118110000Y-72390000D01*
X120753500Y-74930000D02*
X118110000Y-74930000D01*
X116907500Y-73727500D02*
X118110000Y-74930000D01*
X116907500Y-71906600D02*
X116907500Y-73727500D01*
X117694100Y-71120000D02*
X116907500Y-71906600D01*
X121100600Y-71120000D02*
X117694100Y-71120000D01*
X129485100Y-62735500D02*
X121100600Y-71120000D01*
X129485100Y-61713100D02*
X129485100Y-62735500D01*
X128637300Y-60865300D02*
X129485100Y-61713100D01*
X128270000Y-60865300D02*
X128637300Y-60865300D01*
X128270000Y-59690000D02*
X128270000Y-60865300D01*
X128270000Y-62230000D02*
X127094700Y-62230000D01*
X127094700Y-62597300D02*
X127094700Y-62230000D01*
X123819600Y-65872400D02*
X127094700Y-62597300D01*
X117341500Y-65872400D02*
X123819600Y-65872400D01*
X116006800Y-67207100D02*
X117341500Y-65872400D01*
X116006800Y-80446800D02*
X116006800Y-67207100D01*
X118110000Y-82550000D02*
X116006800Y-80446800D01*
X128674500Y-99314000D02*
X131572000Y-99314000D01*
X128928500Y-101854000D02*
X128674500Y-102108000D01*
X131572000Y-101854000D02*
X128928500Y-101854000D01*
X115553400Y-82533400D02*
X118110000Y-85090000D01*
X115553400Y-67023600D02*
X115553400Y-82533400D01*
X119171700Y-63405300D02*
X115553400Y-67023600D01*
X121206800Y-63405300D02*
X119171700Y-63405300D01*
X122014700Y-62597400D02*
X121206800Y-63405300D01*
X122014700Y-62230000D02*
X122014700Y-62597400D01*
X123190000Y-62230000D02*
X122014700Y-62230000D01*
X122174000Y-90442100D02*
X121393900Y-89662000D01*
X122174000Y-92051500D02*
X122174000Y-90442100D01*
X119692800Y-67717500D02*
X119285300Y-67310000D01*
X120904000Y-67717500D02*
X119692800Y-67717500D01*
X118110000Y-67310000D02*
X119285300Y-67310000D01*
X128931500Y-96774000D02*
X128524000Y-96366500D01*
X131572000Y-96774000D02*
X128931500Y-96774000D01*
X122578500Y-72390000D02*
X122578500Y-74930000D01*
X126849500Y-102108000D02*
X126849500Y-104394000D01*
X126849500Y-102108000D02*
X126849500Y-99314000D01*
X122578500Y-74930000D02*
X122578500Y-77470000D01*
X118517500Y-69442500D02*
X118110000Y-69850000D01*
X120904000Y-69442500D02*
X118517500Y-69442500D01*
X122578500Y-80010000D02*
X122578500Y-77470000D01*
X131572000Y-94234000D02*
X131572000Y-93058700D01*
X132002800Y-92627900D02*
X131572000Y-93058700D01*
X132002800Y-89006800D02*
X132002800Y-92627900D01*
X123006000Y-80010000D02*
X132002800Y-89006800D01*
X122578500Y-80010000D02*
X123006000Y-80010000D01*
X131572000Y-94234000D02*
X130396700Y-94234000D01*
X121362700Y-76145800D02*
X122578500Y-74930000D01*
X117629300Y-76145800D02*
X121362700Y-76145800D01*
X116457100Y-74973600D02*
X117629300Y-76145800D01*
X116457100Y-71502900D02*
X116457100Y-74973600D01*
X118110000Y-69850000D02*
X116457100Y-71502900D01*
X129989200Y-94641500D02*
X128524000Y-94641500D01*
X130396700Y-94234000D02*
X129989200Y-94641500D01*
X124410000Y-93876500D02*
X126849500Y-96316000D01*
X122174000Y-93876500D02*
X124410000Y-93876500D01*
X128524000Y-94641500D02*
X126849500Y-96316000D01*
X126849500Y-96316000D02*
X126849500Y-99314000D01*
G04 #@! TA.AperFunction,Conductor*
G36*
X133955018Y-56390000D02*
G01*
X133969853Y-56392310D01*
X133969855Y-56392310D01*
X133978724Y-56393691D01*
X133984508Y-56392935D01*
X134050868Y-56413307D01*
X134096700Y-56467528D01*
X134105165Y-56508873D01*
X134106309Y-56508723D01*
X134106309Y-56508724D01*
X134106329Y-56508873D01*
X134110436Y-56540283D01*
X134111500Y-56556621D01*
X134111500Y-107265633D01*
X134110000Y-107285018D01*
X134106309Y-107308724D01*
X134107065Y-107314508D01*
X134086693Y-107380868D01*
X134032472Y-107426700D01*
X133991127Y-107435165D01*
X133991277Y-107436309D01*
X133991276Y-107436309D01*
X133959714Y-107440436D01*
X133943379Y-107441500D01*
X114984367Y-107441500D01*
X114964982Y-107440000D01*
X114950148Y-107437690D01*
X114950145Y-107437690D01*
X114941276Y-107436309D01*
X114936065Y-107436990D01*
X114869984Y-107416706D01*
X114824150Y-107362486D01*
X114813671Y-107319778D01*
X114813729Y-107315000D01*
X114809773Y-107287376D01*
X114808500Y-107269514D01*
X114808500Y-103551133D01*
X115615222Y-103551133D01*
X115615375Y-103555521D01*
X115615375Y-103555527D01*
X115624243Y-103809452D01*
X115625025Y-103831858D01*
X115625787Y-103836181D01*
X115625788Y-103836188D01*
X115649564Y-103971024D01*
X115673802Y-104108487D01*
X115760603Y-104375635D01*
X115762531Y-104379588D01*
X115762533Y-104379593D01*
X115803657Y-104463908D01*
X115883740Y-104628102D01*
X115886195Y-104631741D01*
X115886198Y-104631747D01*
X115959290Y-104740110D01*
X116040815Y-104860976D01*
X116228771Y-105069722D01*
X116232133Y-105072543D01*
X116232134Y-105072544D01*
X116247645Y-105085559D01*
X116443950Y-105250279D01*
X116682164Y-105399131D01*
X116938775Y-105513382D01*
X117208790Y-105590807D01*
X117213140Y-105591418D01*
X117213143Y-105591419D01*
X117316090Y-105605887D01*
X117486952Y-105629900D01*
X117697546Y-105629900D01*
X117699732Y-105629747D01*
X117699736Y-105629747D01*
X117903227Y-105615518D01*
X117903232Y-105615517D01*
X117907612Y-105615211D01*
X118182370Y-105556809D01*
X118186499Y-105555306D01*
X118186503Y-105555305D01*
X118442181Y-105462246D01*
X118442185Y-105462244D01*
X118446326Y-105460737D01*
X118694342Y-105328864D01*
X118799296Y-105252611D01*
X118918029Y-105166347D01*
X118918032Y-105166344D01*
X118921592Y-105163758D01*
X118974093Y-105113059D01*
X119062691Y-105027500D01*
X119123652Y-104968631D01*
X119296588Y-104747282D01*
X119298784Y-104743478D01*
X119298789Y-104743471D01*
X119434835Y-104507831D01*
X119437036Y-104504019D01*
X119542262Y-104243576D01*
X119543328Y-104239301D01*
X119609153Y-103975293D01*
X119609154Y-103975288D01*
X119610217Y-103971024D01*
X119613481Y-103939975D01*
X119639119Y-103696036D01*
X119639119Y-103696033D01*
X119639578Y-103691667D01*
X119639374Y-103685816D01*
X119629929Y-103415339D01*
X119629928Y-103415333D01*
X119629775Y-103410942D01*
X119628875Y-103405834D01*
X119588355Y-103176039D01*
X119580998Y-103134313D01*
X119494197Y-102867165D01*
X119474712Y-102827214D01*
X119409030Y-102692548D01*
X119371060Y-102614698D01*
X119368605Y-102611059D01*
X119368602Y-102611053D01*
X119288335Y-102492053D01*
X119213985Y-102381824D01*
X119026029Y-102173078D01*
X118810850Y-101992521D01*
X118572636Y-101843669D01*
X118316025Y-101729418D01*
X118046010Y-101651993D01*
X118041660Y-101651382D01*
X118041657Y-101651381D01*
X117938710Y-101636913D01*
X117767848Y-101612900D01*
X117557254Y-101612900D01*
X117555068Y-101613053D01*
X117555064Y-101613053D01*
X117351573Y-101627282D01*
X117351568Y-101627283D01*
X117347188Y-101627589D01*
X117072430Y-101685991D01*
X117068301Y-101687494D01*
X117068297Y-101687495D01*
X116812619Y-101780554D01*
X116812615Y-101780556D01*
X116808474Y-101782063D01*
X116560458Y-101913936D01*
X116556899Y-101916522D01*
X116556897Y-101916523D01*
X116452295Y-101992521D01*
X116333208Y-102079042D01*
X116131148Y-102274169D01*
X115958212Y-102495518D01*
X115956016Y-102499322D01*
X115956011Y-102499329D01*
X115866315Y-102654688D01*
X115817764Y-102738781D01*
X115712538Y-102999224D01*
X115711473Y-103003497D01*
X115711472Y-103003499D01*
X115650048Y-103249858D01*
X115644583Y-103271776D01*
X115644124Y-103276144D01*
X115644123Y-103276149D01*
X115618729Y-103517768D01*
X115615222Y-103551133D01*
X114808500Y-103551133D01*
X114808500Y-94951133D01*
X115615222Y-94951133D01*
X115625025Y-95231858D01*
X115625787Y-95236181D01*
X115625788Y-95236188D01*
X115649564Y-95371024D01*
X115673802Y-95508487D01*
X115760603Y-95775635D01*
X115883740Y-96028102D01*
X115886195Y-96031741D01*
X115886198Y-96031747D01*
X115940667Y-96112500D01*
X116040815Y-96260976D01*
X116228771Y-96469722D01*
X116443950Y-96650279D01*
X116682164Y-96799131D01*
X116938775Y-96913382D01*
X117208790Y-96990807D01*
X117213140Y-96991418D01*
X117213143Y-96991419D01*
X117316090Y-97005887D01*
X117486952Y-97029900D01*
X117697546Y-97029900D01*
X117699732Y-97029747D01*
X117699736Y-97029747D01*
X117903227Y-97015518D01*
X117903232Y-97015517D01*
X117907612Y-97015211D01*
X118182370Y-96956809D01*
X118186499Y-96955306D01*
X118186503Y-96955305D01*
X118442181Y-96862246D01*
X118442185Y-96862244D01*
X118446326Y-96860737D01*
X118694342Y-96728864D01*
X118799296Y-96652611D01*
X118918029Y-96566347D01*
X118918032Y-96566344D01*
X118921592Y-96563758D01*
X119123652Y-96368631D01*
X119296588Y-96147282D01*
X119298784Y-96143478D01*
X119298789Y-96143471D01*
X119412606Y-95946333D01*
X119437036Y-95904019D01*
X119542262Y-95643576D01*
X119555120Y-95592007D01*
X119609153Y-95375293D01*
X119609154Y-95375288D01*
X119610217Y-95371024D01*
X119610848Y-95365027D01*
X119639119Y-95096036D01*
X119639119Y-95096033D01*
X119639578Y-95091667D01*
X119631925Y-94872500D01*
X119629929Y-94815339D01*
X119629928Y-94815333D01*
X119629775Y-94810942D01*
X119618153Y-94745027D01*
X119592083Y-94597181D01*
X119580998Y-94534313D01*
X119494197Y-94267165D01*
X119456167Y-94189191D01*
X119429720Y-94134969D01*
X119371060Y-94014698D01*
X119368605Y-94011059D01*
X119368602Y-94011053D01*
X119227994Y-93802594D01*
X119213985Y-93781824D01*
X119026029Y-93573078D01*
X118810850Y-93392521D01*
X118572636Y-93243669D01*
X118316025Y-93129418D01*
X118046010Y-93051993D01*
X118041660Y-93051382D01*
X118041657Y-93051381D01*
X117938710Y-93036913D01*
X117767848Y-93012900D01*
X117557254Y-93012900D01*
X117555068Y-93013053D01*
X117555064Y-93013053D01*
X117351573Y-93027282D01*
X117351568Y-93027283D01*
X117347188Y-93027589D01*
X117072430Y-93085991D01*
X117068301Y-93087494D01*
X117068297Y-93087495D01*
X116812619Y-93180554D01*
X116812615Y-93180556D01*
X116808474Y-93182063D01*
X116560458Y-93313936D01*
X116556899Y-93316522D01*
X116556897Y-93316523D01*
X116339885Y-93474191D01*
X116333208Y-93479042D01*
X116131148Y-93674169D01*
X116047039Y-93781824D01*
X115974267Y-93874969D01*
X115958212Y-93895518D01*
X115956016Y-93899322D01*
X115956011Y-93899329D01*
X115879975Y-94031028D01*
X115817764Y-94138781D01*
X115712538Y-94399224D01*
X115711473Y-94403497D01*
X115711472Y-94403499D01*
X115662927Y-94598204D01*
X115644583Y-94671776D01*
X115644124Y-94676144D01*
X115644123Y-94676149D01*
X115629956Y-94810942D01*
X115615222Y-94951133D01*
X114808500Y-94951133D01*
X114808500Y-82978917D01*
X114828502Y-82910796D01*
X114882158Y-82864303D01*
X114952432Y-82854199D01*
X115017012Y-82883693D01*
X115042954Y-82914779D01*
X115048858Y-82924762D01*
X115063179Y-82939083D01*
X115076019Y-82954116D01*
X115087928Y-82970507D01*
X115094034Y-82975558D01*
X115122005Y-82998698D01*
X115130784Y-83006688D01*
X116759778Y-84635682D01*
X116793804Y-84697994D01*
X116792100Y-84758448D01*
X116770989Y-84834570D01*
X116770441Y-84839700D01*
X116770440Y-84839704D01*
X116766933Y-84872522D01*
X116747251Y-85056695D01*
X116747548Y-85061848D01*
X116747548Y-85061851D01*
X116758768Y-85256433D01*
X116760110Y-85279715D01*
X116761247Y-85284761D01*
X116761248Y-85284767D01*
X116778735Y-85362358D01*
X116809222Y-85497639D01*
X116893266Y-85704616D01*
X116919789Y-85747897D01*
X116960181Y-85813811D01*
X117009987Y-85895088D01*
X117156250Y-86063938D01*
X117328126Y-86206632D01*
X117521000Y-86319338D01*
X117729692Y-86399030D01*
X117734760Y-86400061D01*
X117734763Y-86400062D01*
X117842017Y-86421883D01*
X117948597Y-86443567D01*
X117953772Y-86443757D01*
X117953774Y-86443757D01*
X118166673Y-86451564D01*
X118166677Y-86451564D01*
X118171837Y-86451753D01*
X118176957Y-86451097D01*
X118176959Y-86451097D01*
X118388288Y-86424025D01*
X118388289Y-86424025D01*
X118393416Y-86423368D01*
X118398366Y-86421883D01*
X118602429Y-86360661D01*
X118602434Y-86360659D01*
X118607384Y-86359174D01*
X118807994Y-86260896D01*
X118989860Y-86131173D01*
X119148096Y-85973489D01*
X119207594Y-85890689D01*
X119275435Y-85796277D01*
X119278453Y-85792077D01*
X119291394Y-85765894D01*
X119375136Y-85596453D01*
X119375137Y-85596451D01*
X119377430Y-85591811D01*
X119419137Y-85454539D01*
X119440865Y-85383023D01*
X119440865Y-85383021D01*
X119442370Y-85378069D01*
X119471529Y-85156590D01*
X119473156Y-85090000D01*
X119454852Y-84867361D01*
X119400431Y-84650702D01*
X119311354Y-84445840D01*
X119190014Y-84258277D01*
X119039670Y-84093051D01*
X119035619Y-84089852D01*
X119035615Y-84089848D01*
X118868414Y-83957800D01*
X118868410Y-83957798D01*
X118864359Y-83954598D01*
X118823053Y-83931796D01*
X118773084Y-83881364D01*
X118758312Y-83811921D01*
X118783428Y-83745516D01*
X118810780Y-83718909D01*
X118854603Y-83687650D01*
X118989860Y-83591173D01*
X119148096Y-83433489D01*
X119189323Y-83376116D01*
X119275435Y-83256277D01*
X119278453Y-83252077D01*
X119305267Y-83197824D01*
X119375136Y-83056453D01*
X119375137Y-83056451D01*
X119377430Y-83051811D01*
X119411459Y-82939809D01*
X119440865Y-82843023D01*
X119440865Y-82843021D01*
X119442370Y-82838069D01*
X119471529Y-82616590D01*
X119471611Y-82613240D01*
X119473074Y-82553365D01*
X119473074Y-82553361D01*
X119473156Y-82550000D01*
X119454852Y-82327361D01*
X119400431Y-82110702D01*
X119311354Y-81905840D01*
X119250323Y-81811500D01*
X119192822Y-81722617D01*
X119192820Y-81722614D01*
X119190014Y-81718277D01*
X119039670Y-81553051D01*
X119035619Y-81549852D01*
X119035615Y-81549848D01*
X118868414Y-81417800D01*
X118868410Y-81417798D01*
X118864359Y-81414598D01*
X118823053Y-81391796D01*
X118773084Y-81341364D01*
X118758312Y-81271921D01*
X118783428Y-81205516D01*
X118810780Y-81178909D01*
X118854603Y-81147650D01*
X118989860Y-81051173D01*
X119026959Y-81014204D01*
X119083536Y-80957824D01*
X119148096Y-80893489D01*
X119278453Y-80712077D01*
X119280746Y-80707437D01*
X119282446Y-80704608D01*
X119334674Y-80656518D01*
X119390451Y-80643500D01*
X119801036Y-80643500D01*
X119869157Y-80663502D01*
X119908179Y-80703196D01*
X119914884Y-80714031D01*
X120037997Y-80836929D01*
X120044224Y-80840767D01*
X120044226Y-80840769D01*
X120060116Y-80850564D01*
X120107609Y-80903336D01*
X120120000Y-80957824D01*
X120120000Y-81602301D01*
X120099998Y-81670422D01*
X120060302Y-81709445D01*
X120036969Y-81723884D01*
X120031796Y-81729066D01*
X119919242Y-81841816D01*
X119919238Y-81841821D01*
X119914071Y-81846997D01*
X119910231Y-81853227D01*
X119910230Y-81853228D01*
X119874872Y-81910590D01*
X119822791Y-81995080D01*
X119768026Y-82160191D01*
X119757500Y-82262928D01*
X119757500Y-82837072D01*
X119757837Y-82840318D01*
X119757837Y-82840322D01*
X119767181Y-82930373D01*
X119768293Y-82941093D01*
X119770474Y-82947629D01*
X119770474Y-82947631D01*
X119788772Y-83002477D01*
X119823346Y-83106107D01*
X119914884Y-83254031D01*
X119920066Y-83259204D01*
X120032816Y-83371758D01*
X120032821Y-83371762D01*
X120037997Y-83376929D01*
X120044227Y-83380769D01*
X120044228Y-83380770D01*
X120145729Y-83443336D01*
X120186080Y-83468209D01*
X120351191Y-83522974D01*
X120358027Y-83523674D01*
X120358030Y-83523675D01*
X120409526Y-83528951D01*
X120453928Y-83533500D01*
X121053072Y-83533500D01*
X121056318Y-83533163D01*
X121056322Y-83533163D01*
X121150235Y-83523419D01*
X121150239Y-83523418D01*
X121157093Y-83522707D01*
X121163629Y-83520526D01*
X121163631Y-83520526D01*
X121310423Y-83471552D01*
X121322107Y-83467654D01*
X121470031Y-83376116D01*
X121513159Y-83332913D01*
X121576747Y-83269214D01*
X121639030Y-83235135D01*
X121709850Y-83240138D01*
X121754937Y-83269059D01*
X121857815Y-83371757D01*
X121857820Y-83371761D01*
X121862997Y-83376929D01*
X121869224Y-83380767D01*
X121869226Y-83380769D01*
X121885116Y-83390564D01*
X121932609Y-83443336D01*
X121945000Y-83497824D01*
X121945000Y-85256433D01*
X121944473Y-85267616D01*
X121942798Y-85275109D01*
X121943047Y-85283035D01*
X121943047Y-85283036D01*
X121944938Y-85343186D01*
X121945000Y-85347145D01*
X121945000Y-85375056D01*
X121945497Y-85378990D01*
X121945497Y-85378991D01*
X121945505Y-85379056D01*
X121946438Y-85390893D01*
X121947827Y-85435089D01*
X121953478Y-85454539D01*
X121957487Y-85473900D01*
X121960026Y-85493997D01*
X121962945Y-85501368D01*
X121962945Y-85501370D01*
X121976304Y-85535112D01*
X121980149Y-85546342D01*
X121992482Y-85588793D01*
X121996515Y-85595612D01*
X121996517Y-85595617D01*
X122002793Y-85606228D01*
X122011488Y-85623976D01*
X122018948Y-85642817D01*
X122023610Y-85649233D01*
X122023610Y-85649234D01*
X122044936Y-85678587D01*
X122051452Y-85688507D01*
X122063584Y-85709020D01*
X122073958Y-85726562D01*
X122088279Y-85740883D01*
X122101119Y-85755916D01*
X122113028Y-85772307D01*
X122131318Y-85787438D01*
X122147105Y-85800498D01*
X122155884Y-85808488D01*
X124573679Y-88226284D01*
X124607705Y-88288596D01*
X124602640Y-88359412D01*
X124560149Y-88416205D01*
X124516739Y-88448739D01*
X124429385Y-88565295D01*
X124378255Y-88701684D01*
X124371500Y-88763866D01*
X124371500Y-90560134D01*
X124378255Y-90622316D01*
X124429385Y-90758705D01*
X124516739Y-90875261D01*
X124633295Y-90962615D01*
X124769684Y-91013745D01*
X124831866Y-91020500D01*
X126628134Y-91020500D01*
X126690316Y-91013745D01*
X126826705Y-90962615D01*
X126943261Y-90875261D01*
X127030615Y-90758705D01*
X127064769Y-90667600D01*
X127074598Y-90641382D01*
X127117240Y-90584618D01*
X127183802Y-90559918D01*
X127253150Y-90575126D01*
X127287817Y-90603114D01*
X127316250Y-90635938D01*
X127488126Y-90778632D01*
X127681000Y-90891338D01*
X127889692Y-90971030D01*
X127894760Y-90972061D01*
X127894763Y-90972062D01*
X128002003Y-90993880D01*
X128108597Y-91015567D01*
X128113772Y-91015757D01*
X128113774Y-91015757D01*
X128326673Y-91023564D01*
X128326677Y-91023564D01*
X128331837Y-91023753D01*
X128336957Y-91023097D01*
X128336959Y-91023097D01*
X128548288Y-90996025D01*
X128548289Y-90996025D01*
X128553416Y-90995368D01*
X128558376Y-90993880D01*
X128762429Y-90932661D01*
X128762434Y-90932659D01*
X128767384Y-90931174D01*
X128967994Y-90832896D01*
X129149860Y-90703173D01*
X129308096Y-90545489D01*
X129317670Y-90532166D01*
X129438453Y-90364077D01*
X129439776Y-90365028D01*
X129486645Y-90321857D01*
X129556580Y-90309625D01*
X129622026Y-90337144D01*
X129649875Y-90368994D01*
X129709987Y-90467088D01*
X129856250Y-90635938D01*
X130028126Y-90778632D01*
X130221000Y-90891338D01*
X130429692Y-90971030D01*
X130434760Y-90972061D01*
X130434763Y-90972062D01*
X130542003Y-90993880D01*
X130648597Y-91015567D01*
X130653772Y-91015757D01*
X130653774Y-91015757D01*
X130866673Y-91023564D01*
X130866677Y-91023564D01*
X130871837Y-91023753D01*
X130876957Y-91023097D01*
X130876959Y-91023097D01*
X131088288Y-90996025D01*
X131088289Y-90996025D01*
X131093416Y-90995368D01*
X131098373Y-90993881D01*
X131098377Y-90993880D01*
X131207092Y-90961264D01*
X131278087Y-90960846D01*
X131338038Y-90998879D01*
X131367910Y-91063285D01*
X131369300Y-91081949D01*
X131369300Y-92313305D01*
X131349298Y-92381426D01*
X131332395Y-92402400D01*
X131179747Y-92555048D01*
X131171461Y-92562588D01*
X131164982Y-92566700D01*
X131159557Y-92572477D01*
X131118357Y-92616351D01*
X131115602Y-92619193D01*
X131095865Y-92638930D01*
X131093385Y-92642127D01*
X131085682Y-92651147D01*
X131055414Y-92683379D01*
X131051595Y-92690325D01*
X131051593Y-92690328D01*
X131045652Y-92701134D01*
X131034801Y-92717653D01*
X131022386Y-92733659D01*
X131019241Y-92740928D01*
X131019238Y-92740932D01*
X131004826Y-92774237D01*
X130999604Y-92784896D01*
X130985694Y-92810199D01*
X130935350Y-92860259D01*
X130875279Y-92875500D01*
X130673866Y-92875500D01*
X130611684Y-92882255D01*
X130475295Y-92933385D01*
X130358739Y-93020739D01*
X130271385Y-93137295D01*
X130220255Y-93273684D01*
X130213500Y-93335866D01*
X130213500Y-93535837D01*
X130193498Y-93603958D01*
X130142621Y-93647158D01*
X130143108Y-93647981D01*
X130138308Y-93650820D01*
X130136278Y-93652021D01*
X130125672Y-93658293D01*
X130107924Y-93666988D01*
X130089083Y-93674448D01*
X130082667Y-93679110D01*
X130082666Y-93679110D01*
X130053313Y-93700436D01*
X130043392Y-93706952D01*
X130005338Y-93729458D01*
X129999731Y-93735064D01*
X129991015Y-93743780D01*
X129975982Y-93756620D01*
X129959593Y-93768528D01*
X129948594Y-93781824D01*
X129931411Y-93802594D01*
X129923422Y-93811372D01*
X129763699Y-93971095D01*
X129701387Y-94005121D01*
X129674604Y-94008000D01*
X129502640Y-94008000D01*
X129434519Y-93987998D01*
X129395497Y-93948304D01*
X129350116Y-93874969D01*
X129286408Y-93811372D01*
X129232184Y-93757242D01*
X129232179Y-93757238D01*
X129227003Y-93752071D01*
X129190318Y-93729458D01*
X129085150Y-93664631D01*
X129085148Y-93664630D01*
X129078920Y-93660791D01*
X128913809Y-93606026D01*
X128906973Y-93605326D01*
X128906970Y-93605325D01*
X128855474Y-93600049D01*
X128811072Y-93595500D01*
X128236928Y-93595500D01*
X128233682Y-93595837D01*
X128233678Y-93595837D01*
X128139765Y-93605581D01*
X128139761Y-93605582D01*
X128132907Y-93606293D01*
X128126371Y-93608474D01*
X128126369Y-93608474D01*
X128049889Y-93633990D01*
X127967893Y-93661346D01*
X127819969Y-93752884D01*
X127814796Y-93758066D01*
X127702242Y-93870816D01*
X127702238Y-93870821D01*
X127697071Y-93875997D01*
X127693231Y-93882227D01*
X127693230Y-93882228D01*
X127617478Y-94005121D01*
X127605791Y-94024080D01*
X127551026Y-94189191D01*
X127540500Y-94291928D01*
X127540500Y-94676906D01*
X127520498Y-94745027D01*
X127503595Y-94766001D01*
X126938595Y-95331001D01*
X126876283Y-95365027D01*
X126805468Y-95359962D01*
X126760405Y-95331001D01*
X125874512Y-94445107D01*
X124913652Y-93484247D01*
X124906112Y-93475961D01*
X124902000Y-93469482D01*
X124852348Y-93422856D01*
X124849507Y-93420102D01*
X124829770Y-93400365D01*
X124826573Y-93397885D01*
X124817551Y-93390180D01*
X124791100Y-93365341D01*
X124785321Y-93359914D01*
X124778375Y-93356095D01*
X124778372Y-93356093D01*
X124767566Y-93350152D01*
X124751047Y-93339301D01*
X124746618Y-93335866D01*
X124735041Y-93326886D01*
X124727772Y-93323741D01*
X124727768Y-93323738D01*
X124694463Y-93309326D01*
X124683813Y-93304109D01*
X124645060Y-93282805D01*
X124625437Y-93277767D01*
X124606734Y-93271363D01*
X124595420Y-93266467D01*
X124595419Y-93266467D01*
X124588145Y-93263319D01*
X124580322Y-93262080D01*
X124580312Y-93262077D01*
X124544476Y-93256401D01*
X124532856Y-93253995D01*
X124497711Y-93244972D01*
X124497710Y-93244972D01*
X124490030Y-93243000D01*
X124469776Y-93243000D01*
X124450065Y-93241449D01*
X124437886Y-93239520D01*
X124430057Y-93238280D01*
X124422165Y-93239026D01*
X124386039Y-93242441D01*
X124374181Y-93243000D01*
X123121699Y-93243000D01*
X123053578Y-93222998D01*
X123014554Y-93183301D01*
X123012854Y-93180554D01*
X123000116Y-93159969D01*
X122969512Y-93129418D01*
X122893214Y-93053253D01*
X122859135Y-92990970D01*
X122864138Y-92920150D01*
X122893059Y-92875063D01*
X122995754Y-92772188D01*
X122995758Y-92772183D01*
X123000929Y-92767003D01*
X123004770Y-92760772D01*
X123088369Y-92625150D01*
X123088370Y-92625148D01*
X123092209Y-92618920D01*
X123146974Y-92453809D01*
X123157500Y-92351072D01*
X123157500Y-91751928D01*
X123146707Y-91647907D01*
X123091654Y-91482893D01*
X123000116Y-91334969D01*
X122994934Y-91329796D01*
X122882184Y-91217242D01*
X122882179Y-91217238D01*
X122877003Y-91212071D01*
X122867386Y-91206143D01*
X122865559Y-91204114D01*
X122865027Y-91203693D01*
X122865099Y-91203602D01*
X122819892Y-91153372D01*
X122807500Y-91098882D01*
X122807500Y-90520867D01*
X122808027Y-90509684D01*
X122809702Y-90502191D01*
X122807562Y-90434114D01*
X122807500Y-90430155D01*
X122807500Y-90402244D01*
X122806995Y-90398244D01*
X122806062Y-90386401D01*
X122804922Y-90350130D01*
X122804673Y-90342211D01*
X122799021Y-90322757D01*
X122795013Y-90303400D01*
X122793468Y-90291170D01*
X122793468Y-90291169D01*
X122792474Y-90283303D01*
X122789555Y-90275930D01*
X122776196Y-90242188D01*
X122772351Y-90230958D01*
X122762229Y-90196117D01*
X122762229Y-90196116D01*
X122760018Y-90188507D01*
X122755985Y-90181688D01*
X122755983Y-90181683D01*
X122749707Y-90171072D01*
X122741012Y-90153324D01*
X122733552Y-90134483D01*
X122707564Y-90098713D01*
X122701048Y-90088793D01*
X122682580Y-90057565D01*
X122682578Y-90057562D01*
X122678542Y-90050738D01*
X122664221Y-90036417D01*
X122651380Y-90021383D01*
X122644131Y-90011406D01*
X122639472Y-90004993D01*
X122633367Y-89999942D01*
X122633362Y-89999937D01*
X122605402Y-89976806D01*
X122596624Y-89968819D01*
X122341022Y-89713218D01*
X122306997Y-89650905D01*
X122304807Y-89637292D01*
X122288132Y-89478635D01*
X122288132Y-89478633D01*
X122287442Y-89472072D01*
X122228427Y-89290444D01*
X122132940Y-89125056D01*
X122036403Y-89017840D01*
X122009575Y-88988045D01*
X122009574Y-88988044D01*
X122005153Y-88983134D01*
X121850652Y-88870882D01*
X121844624Y-88868198D01*
X121844622Y-88868197D01*
X121682219Y-88795891D01*
X121682218Y-88795891D01*
X121676188Y-88793206D01*
X121554231Y-88767283D01*
X121495844Y-88754872D01*
X121495839Y-88754872D01*
X121489387Y-88753500D01*
X121298413Y-88753500D01*
X121291961Y-88754872D01*
X121291956Y-88754872D01*
X121233569Y-88767283D01*
X121111612Y-88793206D01*
X121105582Y-88795891D01*
X121105581Y-88795891D01*
X120943178Y-88868197D01*
X120943176Y-88868198D01*
X120937148Y-88870882D01*
X120782647Y-88983134D01*
X120778226Y-88988044D01*
X120778225Y-88988045D01*
X120751398Y-89017840D01*
X120654860Y-89125056D01*
X120559373Y-89290444D01*
X120500358Y-89472072D01*
X120480396Y-89662000D01*
X120500358Y-89851928D01*
X120559373Y-90033556D01*
X120562676Y-90039278D01*
X120562677Y-90039279D01*
X120569293Y-90050738D01*
X120654860Y-90198944D01*
X120659278Y-90203851D01*
X120659279Y-90203852D01*
X120777008Y-90334603D01*
X120782647Y-90340866D01*
X120937148Y-90453118D01*
X120943176Y-90455802D01*
X120943178Y-90455803D01*
X121047368Y-90502191D01*
X121111612Y-90530794D01*
X121197909Y-90549137D01*
X121291956Y-90569128D01*
X121291961Y-90569128D01*
X121298413Y-90570500D01*
X121354305Y-90570500D01*
X121422426Y-90590502D01*
X121443400Y-90607405D01*
X121503595Y-90667600D01*
X121537621Y-90729912D01*
X121540500Y-90756695D01*
X121540500Y-91099036D01*
X121520498Y-91167157D01*
X121480804Y-91206179D01*
X121469969Y-91212884D01*
X121464796Y-91218066D01*
X121352242Y-91330816D01*
X121352238Y-91330821D01*
X121347071Y-91335997D01*
X121343231Y-91342227D01*
X121343230Y-91342228D01*
X121260364Y-91476662D01*
X121255791Y-91484080D01*
X121201026Y-91649191D01*
X121190500Y-91751928D01*
X121190500Y-92351072D01*
X121190837Y-92354318D01*
X121190837Y-92354322D01*
X121195826Y-92402400D01*
X121201293Y-92455093D01*
X121256346Y-92620107D01*
X121347884Y-92768031D01*
X121353066Y-92773204D01*
X121454786Y-92874747D01*
X121488865Y-92937030D01*
X121483862Y-93007850D01*
X121454941Y-93052937D01*
X121352246Y-93155812D01*
X121352242Y-93155817D01*
X121347071Y-93160997D01*
X121343231Y-93167227D01*
X121343230Y-93167228D01*
X121275093Y-93277767D01*
X121255791Y-93309080D01*
X121201026Y-93474191D01*
X121200326Y-93481027D01*
X121200325Y-93481030D01*
X121195049Y-93532526D01*
X121190500Y-93576928D01*
X121190500Y-94176072D01*
X121190837Y-94179318D01*
X121190837Y-94179322D01*
X121199952Y-94267165D01*
X121201293Y-94280093D01*
X121256346Y-94445107D01*
X121347884Y-94593031D01*
X121353066Y-94598204D01*
X121465816Y-94710758D01*
X121465821Y-94710762D01*
X121470997Y-94715929D01*
X121477227Y-94719769D01*
X121477228Y-94719770D01*
X121552229Y-94766001D01*
X121619080Y-94807209D01*
X121784191Y-94861974D01*
X121791027Y-94862674D01*
X121791030Y-94862675D01*
X121842526Y-94867951D01*
X121886928Y-94872500D01*
X122461072Y-94872500D01*
X122464318Y-94872163D01*
X122464322Y-94872163D01*
X122558235Y-94862419D01*
X122558239Y-94862418D01*
X122565093Y-94861707D01*
X122571629Y-94859526D01*
X122571631Y-94859526D01*
X122717254Y-94810942D01*
X122730107Y-94806654D01*
X122878031Y-94715116D01*
X123000929Y-94592003D01*
X123014564Y-94569884D01*
X123067336Y-94522391D01*
X123121824Y-94510000D01*
X124095406Y-94510000D01*
X124163527Y-94530002D01*
X124184501Y-94546905D01*
X126179095Y-96541500D01*
X126213121Y-96603812D01*
X126216000Y-96630595D01*
X126216000Y-98366301D01*
X126195998Y-98434422D01*
X126156302Y-98473445D01*
X126132969Y-98487884D01*
X126127796Y-98493066D01*
X126015242Y-98605816D01*
X126015238Y-98605821D01*
X126010071Y-98610997D01*
X126006231Y-98617227D01*
X126006230Y-98617228D01*
X125967229Y-98680500D01*
X125918791Y-98759080D01*
X125864026Y-98924191D01*
X125853500Y-99026928D01*
X125853500Y-99601072D01*
X125864293Y-99705093D01*
X125919346Y-99870107D01*
X126010884Y-100018031D01*
X126133997Y-100140929D01*
X126140224Y-100144767D01*
X126140226Y-100144769D01*
X126156116Y-100154564D01*
X126203609Y-100207336D01*
X126216000Y-100261824D01*
X126216000Y-101160301D01*
X126195998Y-101228422D01*
X126156302Y-101267445D01*
X126132969Y-101281884D01*
X126127796Y-101287066D01*
X126015242Y-101399816D01*
X126015238Y-101399821D01*
X126010071Y-101404997D01*
X125918791Y-101553080D01*
X125864026Y-101718191D01*
X125863326Y-101725027D01*
X125863325Y-101725030D01*
X125858049Y-101776526D01*
X125853500Y-101820928D01*
X125853500Y-102395072D01*
X125853837Y-102398318D01*
X125853837Y-102398322D01*
X125863563Y-102492053D01*
X125864293Y-102499093D01*
X125919346Y-102664107D01*
X126010884Y-102812031D01*
X126133997Y-102934929D01*
X126140224Y-102938767D01*
X126140226Y-102938769D01*
X126156116Y-102948564D01*
X126203609Y-103001336D01*
X126216000Y-103055824D01*
X126216000Y-103446301D01*
X126195998Y-103514422D01*
X126156302Y-103553445D01*
X126132969Y-103567884D01*
X126127796Y-103573066D01*
X126015242Y-103685816D01*
X126015238Y-103685821D01*
X126010071Y-103690997D01*
X126006231Y-103697227D01*
X126006230Y-103697228D01*
X125923243Y-103831858D01*
X125918791Y-103839080D01*
X125864026Y-104004191D01*
X125853500Y-104106928D01*
X125853500Y-104681072D01*
X125853837Y-104684318D01*
X125853837Y-104684322D01*
X125860370Y-104747282D01*
X125864293Y-104785093D01*
X125866474Y-104791629D01*
X125866474Y-104791631D01*
X125890701Y-104864248D01*
X125919346Y-104950107D01*
X126010884Y-105098031D01*
X126016066Y-105103204D01*
X126128816Y-105215758D01*
X126128821Y-105215762D01*
X126133997Y-105220929D01*
X126140227Y-105224769D01*
X126140228Y-105224770D01*
X126185395Y-105252611D01*
X126282080Y-105312209D01*
X126447191Y-105366974D01*
X126454027Y-105367674D01*
X126454030Y-105367675D01*
X126488828Y-105371240D01*
X126549928Y-105377500D01*
X127149072Y-105377500D01*
X127152318Y-105377163D01*
X127152322Y-105377163D01*
X127246235Y-105367419D01*
X127246239Y-105367418D01*
X127253093Y-105366707D01*
X127259629Y-105364526D01*
X127259631Y-105364526D01*
X127392395Y-105320232D01*
X127418107Y-105311654D01*
X127566031Y-105220116D01*
X127622291Y-105163758D01*
X127672747Y-105113214D01*
X127735030Y-105079135D01*
X127805850Y-105084138D01*
X127850937Y-105113059D01*
X127953812Y-105215754D01*
X127953817Y-105215758D01*
X127958997Y-105220929D01*
X127965227Y-105224769D01*
X127965228Y-105224770D01*
X128010395Y-105252611D01*
X128107080Y-105312209D01*
X128272191Y-105366974D01*
X128279027Y-105367674D01*
X128279030Y-105367675D01*
X128313828Y-105371240D01*
X128374928Y-105377500D01*
X128974072Y-105377500D01*
X128977318Y-105377163D01*
X128977322Y-105377163D01*
X129071235Y-105367419D01*
X129071239Y-105367418D01*
X129078093Y-105366707D01*
X129084629Y-105364526D01*
X129084631Y-105364526D01*
X129217395Y-105320232D01*
X129243107Y-105311654D01*
X129391031Y-105220116D01*
X129416415Y-105194688D01*
X129508758Y-105102184D01*
X129508762Y-105102179D01*
X129513929Y-105097003D01*
X129519857Y-105087386D01*
X129521886Y-105085559D01*
X129522307Y-105085027D01*
X129522398Y-105085099D01*
X129572628Y-105039892D01*
X129627118Y-105027500D01*
X130296274Y-105027500D01*
X130364395Y-105047502D01*
X130403707Y-105087665D01*
X130471987Y-105199088D01*
X130618250Y-105367938D01*
X130790126Y-105510632D01*
X130983000Y-105623338D01*
X131191692Y-105703030D01*
X131196760Y-105704061D01*
X131196763Y-105704062D01*
X131304017Y-105725883D01*
X131410597Y-105747567D01*
X131415772Y-105747757D01*
X131415774Y-105747757D01*
X131628673Y-105755564D01*
X131628677Y-105755564D01*
X131633837Y-105755753D01*
X131638957Y-105755097D01*
X131638959Y-105755097D01*
X131850288Y-105728025D01*
X131850289Y-105728025D01*
X131855416Y-105727368D01*
X131860366Y-105725883D01*
X132064429Y-105664661D01*
X132064434Y-105664659D01*
X132069384Y-105663174D01*
X132269994Y-105564896D01*
X132451860Y-105435173D01*
X132610096Y-105277489D01*
X132631681Y-105247451D01*
X132737435Y-105100277D01*
X132740453Y-105096077D01*
X132744611Y-105087665D01*
X132837136Y-104900453D01*
X132837137Y-104900451D01*
X132839430Y-104895811D01*
X132904370Y-104682069D01*
X132933529Y-104460590D01*
X132935156Y-104394000D01*
X132916852Y-104171361D01*
X132888821Y-104059766D01*
X132891625Y-103988825D01*
X132921930Y-103939975D01*
X133158253Y-103703652D01*
X133166539Y-103696112D01*
X133173018Y-103692000D01*
X133219644Y-103642348D01*
X133222398Y-103639507D01*
X133242135Y-103619770D01*
X133244615Y-103616573D01*
X133252320Y-103607551D01*
X133277159Y-103581100D01*
X133282586Y-103575321D01*
X133286405Y-103568375D01*
X133286407Y-103568372D01*
X133292348Y-103557566D01*
X133303199Y-103541047D01*
X133303692Y-103540411D01*
X133315614Y-103525041D01*
X133318759Y-103517772D01*
X133318762Y-103517768D01*
X133333174Y-103484463D01*
X133338391Y-103473813D01*
X133359695Y-103435060D01*
X133362743Y-103423191D01*
X133364733Y-103415438D01*
X133371137Y-103396734D01*
X133376033Y-103385420D01*
X133376033Y-103385419D01*
X133379181Y-103378145D01*
X133380420Y-103370322D01*
X133380423Y-103370312D01*
X133386099Y-103334476D01*
X133388505Y-103322856D01*
X133397528Y-103287711D01*
X133397528Y-103287710D01*
X133399500Y-103280030D01*
X133399500Y-103259776D01*
X133401051Y-103240065D01*
X133402980Y-103227886D01*
X133404220Y-103220057D01*
X133400059Y-103176038D01*
X133399500Y-103164181D01*
X133399500Y-62532767D01*
X133400027Y-62521584D01*
X133401702Y-62514091D01*
X133399562Y-62446014D01*
X133399500Y-62442055D01*
X133399500Y-62414144D01*
X133398995Y-62410144D01*
X133398062Y-62398301D01*
X133396922Y-62362029D01*
X133396673Y-62354110D01*
X133391022Y-62334658D01*
X133387014Y-62315306D01*
X133385467Y-62303063D01*
X133384474Y-62295203D01*
X133381556Y-62287832D01*
X133368200Y-62254097D01*
X133364355Y-62242870D01*
X133363721Y-62240687D01*
X133352018Y-62200407D01*
X133341707Y-62182972D01*
X133333012Y-62165224D01*
X133325552Y-62146383D01*
X133299564Y-62110613D01*
X133293048Y-62100693D01*
X133274580Y-62069465D01*
X133274578Y-62069462D01*
X133270542Y-62062638D01*
X133256221Y-62048317D01*
X133243380Y-62033283D01*
X133236131Y-62023306D01*
X133231472Y-62016893D01*
X133197395Y-61988702D01*
X133188616Y-61980712D01*
X131895899Y-60687994D01*
X131861873Y-60625682D01*
X131866938Y-60554866D01*
X131882671Y-60525373D01*
X131975435Y-60396277D01*
X131978453Y-60392077D01*
X131991995Y-60364678D01*
X132075136Y-60196453D01*
X132075137Y-60196451D01*
X132077430Y-60191811D01*
X132142370Y-59978069D01*
X132171529Y-59756590D01*
X132173156Y-59690000D01*
X132154852Y-59467361D01*
X132100431Y-59250702D01*
X132011354Y-59045840D01*
X131890014Y-58858277D01*
X131739670Y-58693051D01*
X131735619Y-58689852D01*
X131735615Y-58689848D01*
X131568414Y-58557800D01*
X131568410Y-58557798D01*
X131564359Y-58554598D01*
X131528028Y-58534542D01*
X131512136Y-58525769D01*
X131368789Y-58446638D01*
X131363920Y-58444914D01*
X131363916Y-58444912D01*
X131163087Y-58373795D01*
X131163083Y-58373794D01*
X131158212Y-58372069D01*
X131153119Y-58371162D01*
X131153116Y-58371161D01*
X130943373Y-58333800D01*
X130943367Y-58333799D01*
X130938284Y-58332894D01*
X130864452Y-58331992D01*
X130720081Y-58330228D01*
X130720079Y-58330228D01*
X130714911Y-58330165D01*
X130494091Y-58363955D01*
X130281756Y-58433357D01*
X130083607Y-58536507D01*
X130079474Y-58539610D01*
X130079471Y-58539612D01*
X130055247Y-58557800D01*
X129904965Y-58670635D01*
X129750629Y-58832138D01*
X129643201Y-58989621D01*
X129588293Y-59034621D01*
X129517768Y-59042792D01*
X129454021Y-59011538D01*
X129433324Y-58987054D01*
X129352822Y-58862617D01*
X129352820Y-58862614D01*
X129350014Y-58858277D01*
X129199670Y-58693051D01*
X129195619Y-58689852D01*
X129195615Y-58689848D01*
X129028414Y-58557800D01*
X129028410Y-58557798D01*
X129024359Y-58554598D01*
X128988028Y-58534542D01*
X128972136Y-58525769D01*
X128828789Y-58446638D01*
X128823920Y-58444914D01*
X128823916Y-58444912D01*
X128623087Y-58373795D01*
X128623083Y-58373794D01*
X128618212Y-58372069D01*
X128613119Y-58371162D01*
X128613116Y-58371161D01*
X128403373Y-58333800D01*
X128403367Y-58333799D01*
X128398284Y-58332894D01*
X128324452Y-58331992D01*
X128180081Y-58330228D01*
X128180079Y-58330228D01*
X128174911Y-58330165D01*
X127954091Y-58363955D01*
X127741756Y-58433357D01*
X127543607Y-58536507D01*
X127539474Y-58539610D01*
X127539471Y-58539612D01*
X127515247Y-58557800D01*
X127364965Y-58670635D01*
X127210629Y-58832138D01*
X127103201Y-58989621D01*
X127048293Y-59034621D01*
X126977768Y-59042792D01*
X126914021Y-59011538D01*
X126893324Y-58987054D01*
X126812822Y-58862617D01*
X126812820Y-58862614D01*
X126810014Y-58858277D01*
X126659670Y-58693051D01*
X126655619Y-58689852D01*
X126655615Y-58689848D01*
X126488414Y-58557800D01*
X126488410Y-58557798D01*
X126484359Y-58554598D01*
X126448028Y-58534542D01*
X126432136Y-58525769D01*
X126288789Y-58446638D01*
X126283920Y-58444914D01*
X126283916Y-58444912D01*
X126083087Y-58373795D01*
X126083083Y-58373794D01*
X126078212Y-58372069D01*
X126073119Y-58371162D01*
X126073116Y-58371161D01*
X125863373Y-58333800D01*
X125863367Y-58333799D01*
X125858284Y-58332894D01*
X125784452Y-58331992D01*
X125640081Y-58330228D01*
X125640079Y-58330228D01*
X125634911Y-58330165D01*
X125414091Y-58363955D01*
X125201756Y-58433357D01*
X125003607Y-58536507D01*
X124999474Y-58539610D01*
X124999471Y-58539612D01*
X124975247Y-58557800D01*
X124824965Y-58670635D01*
X124670629Y-58832138D01*
X124563201Y-58989621D01*
X124508293Y-59034621D01*
X124437768Y-59042792D01*
X124374021Y-59011538D01*
X124353324Y-58987054D01*
X124272822Y-58862617D01*
X124272820Y-58862614D01*
X124270014Y-58858277D01*
X124119670Y-58693051D01*
X124115619Y-58689852D01*
X124115615Y-58689848D01*
X123948414Y-58557800D01*
X123948410Y-58557798D01*
X123944359Y-58554598D01*
X123908028Y-58534542D01*
X123892136Y-58525769D01*
X123748789Y-58446638D01*
X123743920Y-58444914D01*
X123743916Y-58444912D01*
X123543087Y-58373795D01*
X123543083Y-58373794D01*
X123538212Y-58372069D01*
X123533119Y-58371162D01*
X123533116Y-58371161D01*
X123323373Y-58333800D01*
X123323367Y-58333799D01*
X123318284Y-58332894D01*
X123244452Y-58331992D01*
X123100081Y-58330228D01*
X123100079Y-58330228D01*
X123094911Y-58330165D01*
X122874091Y-58363955D01*
X122661756Y-58433357D01*
X122463607Y-58536507D01*
X122459474Y-58539610D01*
X122459471Y-58539612D01*
X122435247Y-58557800D01*
X122284965Y-58670635D01*
X122130629Y-58832138D01*
X122023204Y-58989618D01*
X122022898Y-58990066D01*
X121967987Y-59035069D01*
X121897462Y-59043240D01*
X121833715Y-59011986D01*
X121813018Y-58987502D01*
X121732426Y-58862926D01*
X121726136Y-58854757D01*
X121582806Y-58697240D01*
X121575273Y-58690215D01*
X121408139Y-58558222D01*
X121399552Y-58552517D01*
X121213117Y-58449599D01*
X121203705Y-58445369D01*
X121002959Y-58374280D01*
X120992988Y-58371646D01*
X120921837Y-58358972D01*
X120908540Y-58360432D01*
X120904000Y-58374989D01*
X120904000Y-62358000D01*
X120883998Y-62426121D01*
X120830342Y-62472614D01*
X120778000Y-62484000D01*
X120522000Y-62484000D01*
X120453879Y-62463998D01*
X120407386Y-62410342D01*
X120396000Y-62358000D01*
X120396000Y-58373102D01*
X120392082Y-58359758D01*
X120377806Y-58357771D01*
X120339324Y-58363660D01*
X120329288Y-58366051D01*
X120126868Y-58432212D01*
X120117359Y-58436209D01*
X119928463Y-58534542D01*
X119919738Y-58540036D01*
X119749433Y-58667905D01*
X119741726Y-58674748D01*
X119594590Y-58828717D01*
X119588109Y-58836722D01*
X119483498Y-58990074D01*
X119428587Y-59035076D01*
X119358062Y-59043247D01*
X119294315Y-59011993D01*
X119273618Y-58987509D01*
X119192822Y-58862617D01*
X119192820Y-58862614D01*
X119190014Y-58858277D01*
X119039670Y-58693051D01*
X119035619Y-58689852D01*
X119035615Y-58689848D01*
X118868414Y-58557800D01*
X118868410Y-58557798D01*
X118864359Y-58554598D01*
X118828028Y-58534542D01*
X118812136Y-58525769D01*
X118668789Y-58446638D01*
X118663920Y-58444914D01*
X118663916Y-58444912D01*
X118463087Y-58373795D01*
X118463083Y-58373794D01*
X118458212Y-58372069D01*
X118453119Y-58371162D01*
X118453116Y-58371161D01*
X118243373Y-58333800D01*
X118243367Y-58333799D01*
X118238284Y-58332894D01*
X118164452Y-58331992D01*
X118020081Y-58330228D01*
X118020079Y-58330228D01*
X118014911Y-58330165D01*
X117794091Y-58363955D01*
X117581756Y-58433357D01*
X117383607Y-58536507D01*
X117379474Y-58539610D01*
X117379471Y-58539612D01*
X117355247Y-58557800D01*
X117204965Y-58670635D01*
X117050629Y-58832138D01*
X116924743Y-59016680D01*
X116830688Y-59219305D01*
X116770989Y-59434570D01*
X116747251Y-59656695D01*
X116747548Y-59661848D01*
X116747548Y-59661851D01*
X116753011Y-59756590D01*
X116760110Y-59879715D01*
X116761247Y-59884761D01*
X116761248Y-59884767D01*
X116781119Y-59972939D01*
X116809222Y-60097639D01*
X116893266Y-60304616D01*
X116944019Y-60387438D01*
X117007291Y-60490688D01*
X117009987Y-60495088D01*
X117156250Y-60663938D01*
X117160230Y-60667242D01*
X117164981Y-60671187D01*
X117204616Y-60730090D01*
X117206113Y-60801071D01*
X117168997Y-60861593D01*
X117128725Y-60886112D01*
X117040095Y-60919338D01*
X117013295Y-60929385D01*
X116896739Y-61016739D01*
X116809385Y-61133295D01*
X116758255Y-61269684D01*
X116751500Y-61331866D01*
X116751500Y-63128134D01*
X116758255Y-63190316D01*
X116809385Y-63326705D01*
X116896739Y-63443261D01*
X117013295Y-63530615D01*
X117149684Y-63581745D01*
X117211866Y-63588500D01*
X117788406Y-63588500D01*
X117856527Y-63608502D01*
X117903020Y-63662158D01*
X117913124Y-63732432D01*
X117883630Y-63797012D01*
X117877502Y-63803594D01*
X116515853Y-65165242D01*
X115161147Y-66519948D01*
X115152861Y-66527488D01*
X115146382Y-66531600D01*
X115140957Y-66537377D01*
X115099757Y-66581251D01*
X115097002Y-66584093D01*
X115077265Y-66603830D01*
X115074785Y-66607027D01*
X115067082Y-66616047D01*
X115036814Y-66648279D01*
X115034983Y-66651610D01*
X114980212Y-66693844D01*
X114909476Y-66699918D01*
X114846684Y-66666785D01*
X114811774Y-66604965D01*
X114808500Y-66576428D01*
X114808500Y-56568250D01*
X114810246Y-56547345D01*
X114812770Y-56532344D01*
X114812770Y-56532341D01*
X114813576Y-56527552D01*
X114813704Y-56517029D01*
X114834533Y-56449157D01*
X114888750Y-56403320D01*
X114928906Y-56395094D01*
X114928723Y-56393691D01*
X114928724Y-56393691D01*
X114960286Y-56389564D01*
X114976621Y-56388500D01*
X133935633Y-56388500D01*
X133955018Y-56390000D01*
G37*
G04 #@! TD.AperFunction*
G04 #@! TA.AperFunction,Conductor*
G36*
X130213521Y-95271860D02*
G01*
X130269004Y-95324353D01*
X130271385Y-95330705D01*
X130358739Y-95447261D01*
X130475295Y-95534615D01*
X130611684Y-95585745D01*
X130673866Y-95592500D01*
X130706840Y-95592500D01*
X130774961Y-95612502D01*
X130817384Y-95658035D01*
X130819967Y-95662757D01*
X131842115Y-96684905D01*
X131876141Y-96747217D01*
X131871076Y-96818032D01*
X131842115Y-96863095D01*
X130818737Y-97886473D01*
X130811977Y-97898853D01*
X130817258Y-97905907D01*
X130863969Y-97933203D01*
X130912693Y-97984841D01*
X130925764Y-98054624D01*
X130899033Y-98120396D01*
X130858584Y-98153752D01*
X130845607Y-98160507D01*
X130841474Y-98163610D01*
X130841471Y-98163612D01*
X130671100Y-98291530D01*
X130666965Y-98294635D01*
X130663393Y-98298373D01*
X130531374Y-98436523D01*
X130512629Y-98456138D01*
X130509715Y-98460410D01*
X130509714Y-98460411D01*
X130397095Y-98625504D01*
X130342184Y-98670507D01*
X130293007Y-98680500D01*
X129626964Y-98680500D01*
X129558843Y-98660498D01*
X129519821Y-98620804D01*
X129513116Y-98609969D01*
X129498062Y-98594941D01*
X129395184Y-98492242D01*
X129395179Y-98492238D01*
X129390003Y-98487071D01*
X129333758Y-98452401D01*
X129248150Y-98399631D01*
X129248148Y-98399630D01*
X129241920Y-98395791D01*
X129076809Y-98341026D01*
X129069973Y-98340326D01*
X129069970Y-98340325D01*
X129018474Y-98335049D01*
X128974072Y-98330500D01*
X128374928Y-98330500D01*
X128371682Y-98330837D01*
X128371678Y-98330837D01*
X128277765Y-98340581D01*
X128277761Y-98340582D01*
X128270907Y-98341293D01*
X128264371Y-98343474D01*
X128264369Y-98343474D01*
X128195949Y-98366301D01*
X128105893Y-98396346D01*
X127957969Y-98487884D01*
X127952796Y-98493066D01*
X127851253Y-98594786D01*
X127788970Y-98628865D01*
X127718150Y-98623862D01*
X127673063Y-98594941D01*
X127570185Y-98492243D01*
X127570180Y-98492239D01*
X127565003Y-98487071D01*
X127558776Y-98483233D01*
X127558774Y-98483231D01*
X127542884Y-98473436D01*
X127495391Y-98420664D01*
X127483000Y-98366176D01*
X127483000Y-97221562D01*
X127503002Y-97153441D01*
X127556658Y-97106948D01*
X127626932Y-97096844D01*
X127691512Y-97126338D01*
X127697943Y-97133054D01*
X127698279Y-97132718D01*
X127816129Y-97250363D01*
X127827540Y-97259375D01*
X127963063Y-97342912D01*
X127976241Y-97349056D01*
X128127766Y-97399315D01*
X128141132Y-97402181D01*
X128233770Y-97411672D01*
X128240185Y-97412000D01*
X128251885Y-97412000D01*
X128267124Y-97407525D01*
X128268329Y-97406135D01*
X128270000Y-97398452D01*
X128270000Y-97393885D01*
X128778000Y-97393885D01*
X128782475Y-97409124D01*
X128783865Y-97410329D01*
X128791548Y-97412000D01*
X128807766Y-97412000D01*
X128814282Y-97411663D01*
X128908132Y-97401925D01*
X128921528Y-97399032D01*
X129072953Y-97348512D01*
X129086115Y-97342347D01*
X129221492Y-97258574D01*
X129232890Y-97249540D01*
X129345363Y-97136871D01*
X129354375Y-97125460D01*
X129437912Y-96989937D01*
X129444056Y-96976759D01*
X129494315Y-96825234D01*
X129497181Y-96811868D01*
X129503943Y-96745863D01*
X130210050Y-96745863D01*
X130222309Y-96958477D01*
X130223745Y-96968697D01*
X130270565Y-97176446D01*
X130273645Y-97186275D01*
X130353770Y-97383603D01*
X130358413Y-97392794D01*
X130438460Y-97523420D01*
X130448916Y-97532880D01*
X130457694Y-97529096D01*
X131199978Y-96786812D01*
X131207592Y-96772868D01*
X131207461Y-96771035D01*
X131203210Y-96764420D01*
X130461849Y-96023059D01*
X130450313Y-96016759D01*
X130438031Y-96026382D01*
X130390089Y-96096662D01*
X130385004Y-96105613D01*
X130295338Y-96298783D01*
X130291775Y-96308470D01*
X130234864Y-96513681D01*
X130232933Y-96523800D01*
X130210302Y-96735574D01*
X130210050Y-96745863D01*
X129503943Y-96745863D01*
X129506672Y-96719230D01*
X129507000Y-96712815D01*
X129507000Y-96638615D01*
X129502525Y-96623376D01*
X129501135Y-96622171D01*
X129493452Y-96620500D01*
X128796115Y-96620500D01*
X128780876Y-96624975D01*
X128779671Y-96626365D01*
X128778000Y-96634048D01*
X128778000Y-97393885D01*
X128270000Y-97393885D01*
X128270000Y-96238500D01*
X128290002Y-96170379D01*
X128343658Y-96123886D01*
X128396000Y-96112500D01*
X129488885Y-96112500D01*
X129504124Y-96108025D01*
X129505329Y-96106635D01*
X129507000Y-96098952D01*
X129507000Y-96020234D01*
X129506663Y-96013718D01*
X129496925Y-95919868D01*
X129494032Y-95906472D01*
X129443512Y-95755047D01*
X129437347Y-95741885D01*
X129353574Y-95606508D01*
X129344536Y-95595106D01*
X129342861Y-95593433D01*
X129342081Y-95592007D01*
X129339993Y-95589373D01*
X129340444Y-95589016D01*
X129308781Y-95531151D01*
X129313784Y-95460331D01*
X129342701Y-95415246D01*
X129345756Y-95412185D01*
X129350929Y-95407003D01*
X129370476Y-95375293D01*
X129395384Y-95334884D01*
X129448156Y-95287391D01*
X129502644Y-95275000D01*
X129910433Y-95275000D01*
X129921616Y-95275527D01*
X129929109Y-95277202D01*
X129937035Y-95276953D01*
X129937036Y-95276953D01*
X129997186Y-95275062D01*
X130001145Y-95275000D01*
X130029056Y-95275000D01*
X130032991Y-95274503D01*
X130033056Y-95274495D01*
X130044893Y-95273562D01*
X130077151Y-95272548D01*
X130081170Y-95272422D01*
X130089089Y-95272173D01*
X130108543Y-95266521D01*
X130127898Y-95262513D01*
X130139711Y-95261021D01*
X130143431Y-95260551D01*
X130213521Y-95271860D01*
G37*
G04 #@! TD.AperFunction*
G04 #@! TA.AperFunction,Conductor*
G36*
X127405163Y-63286907D02*
G01*
X127441615Y-63308018D01*
X127450977Y-63315791D01*
X127488126Y-63346632D01*
X127580988Y-63400896D01*
X127656352Y-63444935D01*
X127705076Y-63496573D01*
X127718147Y-63566356D01*
X127691416Y-63632128D01*
X127681877Y-63642818D01*
X122102595Y-69222100D01*
X122040283Y-69256126D01*
X121969468Y-69251061D01*
X121912632Y-69208514D01*
X121887821Y-69141994D01*
X121887500Y-69133005D01*
X121887500Y-69092928D01*
X121887163Y-69089678D01*
X121877419Y-68995765D01*
X121877418Y-68995761D01*
X121876707Y-68988907D01*
X121821654Y-68823893D01*
X121730116Y-68675969D01*
X121722861Y-68668726D01*
X121721895Y-68666962D01*
X121720387Y-68665059D01*
X121720713Y-68664801D01*
X121688781Y-68606446D01*
X121693782Y-68535625D01*
X121722708Y-68490530D01*
X121725364Y-68487869D01*
X121734375Y-68476460D01*
X121817912Y-68340937D01*
X121824056Y-68327759D01*
X121874315Y-68176234D01*
X121877181Y-68162868D01*
X121886672Y-68070230D01*
X121887000Y-68063815D01*
X121887000Y-67989615D01*
X121882525Y-67974376D01*
X121881135Y-67973171D01*
X121873452Y-67971500D01*
X119939115Y-67971500D01*
X119923876Y-67975975D01*
X119922671Y-67977365D01*
X119921000Y-67985048D01*
X119921000Y-68063766D01*
X119921337Y-68070282D01*
X119931075Y-68164132D01*
X119933968Y-68177528D01*
X119984488Y-68328953D01*
X119990653Y-68342115D01*
X120074426Y-68477492D01*
X120083464Y-68488894D01*
X120085139Y-68490567D01*
X120085919Y-68491993D01*
X120088007Y-68494627D01*
X120087556Y-68494984D01*
X120119219Y-68552849D01*
X120114216Y-68623669D01*
X120085299Y-68668754D01*
X120083260Y-68670797D01*
X120077071Y-68676997D01*
X120073231Y-68683227D01*
X120073230Y-68683228D01*
X120032616Y-68749116D01*
X119979844Y-68796609D01*
X119925356Y-68809000D01*
X119319385Y-68809000D01*
X119251264Y-68788998D01*
X119204771Y-68735342D01*
X119194667Y-68665068D01*
X119224161Y-68600488D01*
X119243820Y-68582174D01*
X119315724Y-68528285D01*
X119328285Y-68515724D01*
X119404786Y-68413649D01*
X119413324Y-68398054D01*
X119458478Y-68277606D01*
X119462105Y-68262351D01*
X119467631Y-68211486D01*
X119468000Y-68204672D01*
X119468000Y-67582115D01*
X119463525Y-67566876D01*
X119462135Y-67565671D01*
X119454452Y-67564000D01*
X117982000Y-67564000D01*
X117913879Y-67543998D01*
X117867386Y-67490342D01*
X117856000Y-67438000D01*
X117856000Y-67182000D01*
X117876002Y-67113879D01*
X117929658Y-67067386D01*
X117982000Y-67056000D01*
X119449884Y-67056000D01*
X119465123Y-67051525D01*
X119466328Y-67050135D01*
X119467999Y-67042452D01*
X119467999Y-66631900D01*
X119488001Y-66563779D01*
X119541657Y-66517286D01*
X119593999Y-66505900D01*
X120279798Y-66505900D01*
X120347919Y-66525902D01*
X120394412Y-66579558D01*
X120404516Y-66649832D01*
X120375022Y-66714412D01*
X120346100Y-66739045D01*
X120206508Y-66825426D01*
X120195110Y-66834460D01*
X120082637Y-66947129D01*
X120073625Y-66958540D01*
X119990088Y-67094063D01*
X119983944Y-67107241D01*
X119933685Y-67258766D01*
X119930819Y-67272132D01*
X119921328Y-67364770D01*
X119921000Y-67371185D01*
X119921000Y-67445385D01*
X119925475Y-67460624D01*
X119926865Y-67461829D01*
X119934548Y-67463500D01*
X121868885Y-67463500D01*
X121884124Y-67459025D01*
X121885329Y-67457635D01*
X121887000Y-67449952D01*
X121887000Y-67371234D01*
X121886663Y-67364718D01*
X121876925Y-67270868D01*
X121874032Y-67257472D01*
X121823512Y-67106047D01*
X121817347Y-67092885D01*
X121733574Y-66957508D01*
X121724540Y-66946110D01*
X121611871Y-66833637D01*
X121600460Y-66824625D01*
X121461809Y-66739160D01*
X121414316Y-66686388D01*
X121402892Y-66616317D01*
X121431166Y-66551193D01*
X121490160Y-66511693D01*
X121527925Y-66505900D01*
X123740833Y-66505900D01*
X123752016Y-66506427D01*
X123759509Y-66508102D01*
X123767435Y-66507853D01*
X123767436Y-66507853D01*
X123827586Y-66505962D01*
X123831545Y-66505900D01*
X123859456Y-66505900D01*
X123863391Y-66505403D01*
X123863456Y-66505395D01*
X123875293Y-66504462D01*
X123907551Y-66503448D01*
X123911570Y-66503322D01*
X123919489Y-66503073D01*
X123938943Y-66497421D01*
X123958300Y-66493413D01*
X123970530Y-66491868D01*
X123970531Y-66491868D01*
X123978397Y-66490874D01*
X123985768Y-66487955D01*
X123985770Y-66487955D01*
X124019512Y-66474596D01*
X124030742Y-66470751D01*
X124065583Y-66460629D01*
X124065584Y-66460629D01*
X124073193Y-66458418D01*
X124080012Y-66454385D01*
X124080017Y-66454383D01*
X124090628Y-66448107D01*
X124108376Y-66439412D01*
X124127217Y-66431952D01*
X124162987Y-66405964D01*
X124172907Y-66399448D01*
X124204135Y-66380980D01*
X124204138Y-66380978D01*
X124210962Y-66376942D01*
X124225283Y-66362621D01*
X124240317Y-66349780D01*
X124250294Y-66342531D01*
X124256707Y-66337872D01*
X124284898Y-66303795D01*
X124292888Y-66295016D01*
X127272036Y-63315868D01*
X127334348Y-63281842D01*
X127405163Y-63286907D01*
G37*
G04 #@! TD.AperFunction*
M02*
