%TF.GenerationSoftware,KiCad,Pcbnew,6.0.9-8da3e8f707~116~ubuntu20.04.1*%
%TF.CreationDate,2023-03-05T00:07:39+01:00*%
%TF.ProjectId,accl_magn_pmod,6163636c-5f6d-4616-976e-5f706d6f642e,rev?*%
%TF.SameCoordinates,Original*%
%TF.FileFunction,Drillmap*%
%TF.FilePolarity,Positive*%
%FSLAX45Y45*%
G04 Gerber Fmt 4.5, Leading zero omitted, Abs format (unit mm)*
G04 Created by KiCad (PCBNEW 6.0.9-8da3e8f707~116~ubuntu20.04.1) date 2023-03-05 00:07:39*
%MOMM*%
%LPD*%
G01*
G04 APERTURE LIST*
%ADD10C,0.100000*%
%ADD11C,0.200000*%
%ADD12C,0.040000*%
G04 APERTURE END LIST*
D10*
X11493500Y-10795000D02*
X13398500Y-10795000D01*
X11430000Y-10731500D02*
X11430000Y-5651500D01*
X13462000Y-5651500D02*
X13462000Y-10731500D01*
X13398500Y-5588000D02*
X11493500Y-5588000D01*
X13398500Y-10795000D02*
G75*
G03*
X13462000Y-10731500I0J63500D01*
G01*
X11430000Y-10731500D02*
G75*
G03*
X11493500Y-10795000I63500J0D01*
G01*
X13462000Y-5651500D02*
G75*
G03*
X13398500Y-5588000I-63500J0D01*
G01*
X11493500Y-5588000D02*
G75*
G03*
X11430000Y-5651500I0J-63500D01*
G01*
D11*
D12*
X12119390Y-8946200D02*
X12159390Y-8986200D01*
X12159390Y-8946200D02*
X12119390Y-8986200D01*
D10*
X11861000Y-5969000D02*
G75*
G03*
X11861000Y-5969000I-50000J0D01*
G01*
X11861000Y-6223000D02*
G75*
G03*
X11861000Y-6223000I-50000J0D01*
G01*
X11861000Y-6731000D02*
G75*
G03*
X11861000Y-6731000I-50000J0D01*
G01*
X11861000Y-6985000D02*
G75*
G03*
X11861000Y-6985000I-50000J0D01*
G01*
X11861000Y-7239000D02*
G75*
G03*
X11861000Y-7239000I-50000J0D01*
G01*
X11861000Y-7493000D02*
G75*
G03*
X11861000Y-7493000I-50000J0D01*
G01*
X11861000Y-7747000D02*
G75*
G03*
X11861000Y-7747000I-50000J0D01*
G01*
X11861000Y-8001000D02*
G75*
G03*
X11861000Y-8001000I-50000J0D01*
G01*
X11861000Y-8255000D02*
G75*
G03*
X11861000Y-8255000I-50000J0D01*
G01*
X11861000Y-8509000D02*
G75*
G03*
X11861000Y-8509000I-50000J0D01*
G01*
X12115000Y-5969000D02*
G75*
G03*
X12115000Y-5969000I-50000J0D01*
G01*
X12115000Y-6223000D02*
G75*
G03*
X12115000Y-6223000I-50000J0D01*
G01*
X12369000Y-5969000D02*
G75*
G03*
X12369000Y-5969000I-50000J0D01*
G01*
X12369000Y-6223000D02*
G75*
G03*
X12369000Y-6223000I-50000J0D01*
G01*
X12623000Y-5969000D02*
G75*
G03*
X12623000Y-5969000I-50000J0D01*
G01*
X12623000Y-6223000D02*
G75*
G03*
X12623000Y-6223000I-50000J0D01*
G01*
X12623000Y-8966200D02*
G75*
G03*
X12623000Y-8966200I-50000J0D01*
G01*
X12877000Y-5969000D02*
G75*
G03*
X12877000Y-5969000I-50000J0D01*
G01*
X12877000Y-6223000D02*
G75*
G03*
X12877000Y-6223000I-50000J0D01*
G01*
X12877000Y-8966200D02*
G75*
G03*
X12877000Y-8966200I-50000J0D01*
G01*
X13131000Y-5969000D02*
G75*
G03*
X13131000Y-5969000I-50000J0D01*
G01*
X13131000Y-6223000D02*
G75*
G03*
X13131000Y-6223000I-50000J0D01*
G01*
X13131000Y-8966200D02*
G75*
G03*
X13131000Y-8966200I-50000J0D01*
G01*
X13207200Y-9423400D02*
G75*
G03*
X13207200Y-9423400I-50000J0D01*
G01*
X13207200Y-9677400D02*
G75*
G03*
X13207200Y-9677400I-50000J0D01*
G01*
X13207200Y-9931400D02*
G75*
G03*
X13207200Y-9931400I-50000J0D01*
G01*
X13207200Y-10185400D02*
G75*
G03*
X13207200Y-10185400I-50000J0D01*
G01*
X13207200Y-10439400D02*
G75*
G03*
X13207200Y-10439400I-50000J0D01*
G01*
D11*
X11682619Y-11110476D02*
X11682619Y-10910476D01*
X11730238Y-10910476D01*
X11758809Y-10920000D01*
X11777857Y-10939048D01*
X11787381Y-10958095D01*
X11796905Y-10996190D01*
X11796905Y-11024762D01*
X11787381Y-11062857D01*
X11777857Y-11081905D01*
X11758809Y-11100952D01*
X11730238Y-11110476D01*
X11682619Y-11110476D01*
X11882619Y-11110476D02*
X11882619Y-10977143D01*
X11882619Y-11015238D02*
X11892143Y-10996190D01*
X11901667Y-10986667D01*
X11920714Y-10977143D01*
X11939762Y-10977143D01*
X12006428Y-11110476D02*
X12006428Y-10977143D01*
X12006428Y-10910476D02*
X11996905Y-10920000D01*
X12006428Y-10929524D01*
X12015952Y-10920000D01*
X12006428Y-10910476D01*
X12006428Y-10929524D01*
X12130238Y-11110476D02*
X12111190Y-11100952D01*
X12101667Y-11081905D01*
X12101667Y-10910476D01*
X12235000Y-11110476D02*
X12215952Y-11100952D01*
X12206428Y-11081905D01*
X12206428Y-10910476D01*
X12463571Y-11110476D02*
X12463571Y-10910476D01*
X12530238Y-11053333D01*
X12596905Y-10910476D01*
X12596905Y-11110476D01*
X12777857Y-11110476D02*
X12777857Y-11005714D01*
X12768333Y-10986667D01*
X12749286Y-10977143D01*
X12711190Y-10977143D01*
X12692143Y-10986667D01*
X12777857Y-11100952D02*
X12758809Y-11110476D01*
X12711190Y-11110476D01*
X12692143Y-11100952D01*
X12682619Y-11081905D01*
X12682619Y-11062857D01*
X12692143Y-11043810D01*
X12711190Y-11034286D01*
X12758809Y-11034286D01*
X12777857Y-11024762D01*
X12873095Y-10977143D02*
X12873095Y-11177143D01*
X12873095Y-10986667D02*
X12892143Y-10977143D01*
X12930238Y-10977143D01*
X12949286Y-10986667D01*
X12958809Y-10996190D01*
X12968333Y-11015238D01*
X12968333Y-11072381D01*
X12958809Y-11091429D01*
X12949286Y-11100952D01*
X12930238Y-11110476D01*
X12892143Y-11110476D01*
X12873095Y-11100952D01*
X13054048Y-11091429D02*
X13063571Y-11100952D01*
X13054048Y-11110476D01*
X13044524Y-11100952D01*
X13054048Y-11091429D01*
X13054048Y-11110476D01*
X13054048Y-10986667D02*
X13063571Y-10996190D01*
X13054048Y-11005714D01*
X13044524Y-10996190D01*
X13054048Y-10986667D01*
X13054048Y-11005714D01*
D12*
X11385000Y-11420000D02*
X11425000Y-11460000D01*
X11425000Y-11420000D02*
X11385000Y-11460000D01*
D11*
X11720714Y-11330476D02*
X11739762Y-11330476D01*
X11758809Y-11340000D01*
X11768333Y-11349524D01*
X11777857Y-11368571D01*
X11787381Y-11406667D01*
X11787381Y-11454286D01*
X11777857Y-11492381D01*
X11768333Y-11511428D01*
X11758809Y-11520952D01*
X11739762Y-11530476D01*
X11720714Y-11530476D01*
X11701667Y-11520952D01*
X11692143Y-11511428D01*
X11682619Y-11492381D01*
X11673095Y-11454286D01*
X11673095Y-11406667D01*
X11682619Y-11368571D01*
X11692143Y-11349524D01*
X11701667Y-11340000D01*
X11720714Y-11330476D01*
X11873095Y-11511428D02*
X11882619Y-11520952D01*
X11873095Y-11530476D01*
X11863571Y-11520952D01*
X11873095Y-11511428D01*
X11873095Y-11530476D01*
X12054048Y-11397143D02*
X12054048Y-11530476D01*
X12006428Y-11320952D02*
X11958809Y-11463809D01*
X12082619Y-11463809D01*
X12196905Y-11330476D02*
X12215952Y-11330476D01*
X12235000Y-11340000D01*
X12244524Y-11349524D01*
X12254048Y-11368571D01*
X12263571Y-11406667D01*
X12263571Y-11454286D01*
X12254048Y-11492381D01*
X12244524Y-11511428D01*
X12235000Y-11520952D01*
X12215952Y-11530476D01*
X12196905Y-11530476D01*
X12177857Y-11520952D01*
X12168333Y-11511428D01*
X12158809Y-11492381D01*
X12149286Y-11454286D01*
X12149286Y-11406667D01*
X12158809Y-11368571D01*
X12168333Y-11349524D01*
X12177857Y-11340000D01*
X12196905Y-11330476D01*
X12387381Y-11330476D02*
X12406428Y-11330476D01*
X12425476Y-11340000D01*
X12435000Y-11349524D01*
X12444524Y-11368571D01*
X12454048Y-11406667D01*
X12454048Y-11454286D01*
X12444524Y-11492381D01*
X12435000Y-11511428D01*
X12425476Y-11520952D01*
X12406428Y-11530476D01*
X12387381Y-11530476D01*
X12368333Y-11520952D01*
X12358809Y-11511428D01*
X12349286Y-11492381D01*
X12339762Y-11454286D01*
X12339762Y-11406667D01*
X12349286Y-11368571D01*
X12358809Y-11349524D01*
X12368333Y-11340000D01*
X12387381Y-11330476D01*
X12539762Y-11530476D02*
X12539762Y-11397143D01*
X12539762Y-11416190D02*
X12549286Y-11406667D01*
X12568333Y-11397143D01*
X12596905Y-11397143D01*
X12615952Y-11406667D01*
X12625476Y-11425714D01*
X12625476Y-11530476D01*
X12625476Y-11425714D02*
X12635000Y-11406667D01*
X12654048Y-11397143D01*
X12682619Y-11397143D01*
X12701667Y-11406667D01*
X12711190Y-11425714D01*
X12711190Y-11530476D01*
X12806428Y-11530476D02*
X12806428Y-11397143D01*
X12806428Y-11416190D02*
X12815952Y-11406667D01*
X12835000Y-11397143D01*
X12863571Y-11397143D01*
X12882619Y-11406667D01*
X12892143Y-11425714D01*
X12892143Y-11530476D01*
X12892143Y-11425714D02*
X12901667Y-11406667D01*
X12920714Y-11397143D01*
X12949286Y-11397143D01*
X12968333Y-11406667D01*
X12977857Y-11425714D01*
X12977857Y-11530476D01*
X13368333Y-11320952D02*
X13196905Y-11578095D01*
X13625476Y-11330476D02*
X13644524Y-11330476D01*
X13663571Y-11340000D01*
X13673095Y-11349524D01*
X13682619Y-11368571D01*
X13692143Y-11406667D01*
X13692143Y-11454286D01*
X13682619Y-11492381D01*
X13673095Y-11511428D01*
X13663571Y-11520952D01*
X13644524Y-11530476D01*
X13625476Y-11530476D01*
X13606428Y-11520952D01*
X13596905Y-11511428D01*
X13587381Y-11492381D01*
X13577857Y-11454286D01*
X13577857Y-11406667D01*
X13587381Y-11368571D01*
X13596905Y-11349524D01*
X13606428Y-11340000D01*
X13625476Y-11330476D01*
X13777857Y-11511428D02*
X13787381Y-11520952D01*
X13777857Y-11530476D01*
X13768333Y-11520952D01*
X13777857Y-11511428D01*
X13777857Y-11530476D01*
X13911190Y-11330476D02*
X13930238Y-11330476D01*
X13949286Y-11340000D01*
X13958809Y-11349524D01*
X13968333Y-11368571D01*
X13977857Y-11406667D01*
X13977857Y-11454286D01*
X13968333Y-11492381D01*
X13958809Y-11511428D01*
X13949286Y-11520952D01*
X13930238Y-11530476D01*
X13911190Y-11530476D01*
X13892143Y-11520952D01*
X13882619Y-11511428D01*
X13873095Y-11492381D01*
X13863571Y-11454286D01*
X13863571Y-11406667D01*
X13873095Y-11368571D01*
X13882619Y-11349524D01*
X13892143Y-11340000D01*
X13911190Y-11330476D01*
X14168333Y-11530476D02*
X14054048Y-11530476D01*
X14111190Y-11530476D02*
X14111190Y-11330476D01*
X14092143Y-11359048D01*
X14073095Y-11378095D01*
X14054048Y-11387619D01*
X14349286Y-11330476D02*
X14254048Y-11330476D01*
X14244524Y-11425714D01*
X14254048Y-11416190D01*
X14273095Y-11406667D01*
X14320714Y-11406667D01*
X14339762Y-11416190D01*
X14349286Y-11425714D01*
X14358809Y-11444762D01*
X14358809Y-11492381D01*
X14349286Y-11511428D01*
X14339762Y-11520952D01*
X14320714Y-11530476D01*
X14273095Y-11530476D01*
X14254048Y-11520952D01*
X14244524Y-11511428D01*
X14425476Y-11330476D02*
X14558809Y-11330476D01*
X14473095Y-11530476D01*
X14625476Y-11330476D02*
X14625476Y-11368571D01*
X14701667Y-11330476D02*
X14701667Y-11368571D01*
X14996905Y-11606667D02*
X14987381Y-11597143D01*
X14968333Y-11568571D01*
X14958809Y-11549524D01*
X14949286Y-11520952D01*
X14939762Y-11473333D01*
X14939762Y-11435238D01*
X14949286Y-11387619D01*
X14958809Y-11359048D01*
X14968333Y-11340000D01*
X14987381Y-11311428D01*
X14996905Y-11301905D01*
X15177857Y-11530476D02*
X15063571Y-11530476D01*
X15120714Y-11530476D02*
X15120714Y-11330476D01*
X15101667Y-11359048D01*
X15082619Y-11378095D01*
X15063571Y-11387619D01*
X15415952Y-11530476D02*
X15415952Y-11330476D01*
X15501667Y-11530476D02*
X15501667Y-11425714D01*
X15492143Y-11406667D01*
X15473095Y-11397143D01*
X15444524Y-11397143D01*
X15425476Y-11406667D01*
X15415952Y-11416190D01*
X15625476Y-11530476D02*
X15606428Y-11520952D01*
X15596905Y-11511428D01*
X15587381Y-11492381D01*
X15587381Y-11435238D01*
X15596905Y-11416190D01*
X15606428Y-11406667D01*
X15625476Y-11397143D01*
X15654048Y-11397143D01*
X15673095Y-11406667D01*
X15682619Y-11416190D01*
X15692143Y-11435238D01*
X15692143Y-11492381D01*
X15682619Y-11511428D01*
X15673095Y-11520952D01*
X15654048Y-11530476D01*
X15625476Y-11530476D01*
X15806428Y-11530476D02*
X15787381Y-11520952D01*
X15777857Y-11501905D01*
X15777857Y-11330476D01*
X15958809Y-11520952D02*
X15939762Y-11530476D01*
X15901667Y-11530476D01*
X15882619Y-11520952D01*
X15873095Y-11501905D01*
X15873095Y-11425714D01*
X15882619Y-11406667D01*
X15901667Y-11397143D01*
X15939762Y-11397143D01*
X15958809Y-11406667D01*
X15968333Y-11425714D01*
X15968333Y-11444762D01*
X15873095Y-11463809D01*
X16035000Y-11606667D02*
X16044524Y-11597143D01*
X16063571Y-11568571D01*
X16073095Y-11549524D01*
X16082619Y-11520952D01*
X16092143Y-11473333D01*
X16092143Y-11435238D01*
X16082619Y-11387619D01*
X16073095Y-11359048D01*
X16063571Y-11340000D01*
X16044524Y-11311428D01*
X16035000Y-11301905D01*
D10*
X11425000Y-11704000D02*
G75*
G03*
X11425000Y-11704000I-50000J0D01*
G01*
D11*
X11787381Y-11794476D02*
X11673095Y-11794476D01*
X11730238Y-11794476D02*
X11730238Y-11594476D01*
X11711190Y-11623048D01*
X11692143Y-11642095D01*
X11673095Y-11651619D01*
X11873095Y-11775428D02*
X11882619Y-11784952D01*
X11873095Y-11794476D01*
X11863571Y-11784952D01*
X11873095Y-11775428D01*
X11873095Y-11794476D01*
X12006428Y-11594476D02*
X12025476Y-11594476D01*
X12044524Y-11604000D01*
X12054048Y-11613524D01*
X12063571Y-11632571D01*
X12073095Y-11670667D01*
X12073095Y-11718286D01*
X12063571Y-11756381D01*
X12054048Y-11775428D01*
X12044524Y-11784952D01*
X12025476Y-11794476D01*
X12006428Y-11794476D01*
X11987381Y-11784952D01*
X11977857Y-11775428D01*
X11968333Y-11756381D01*
X11958809Y-11718286D01*
X11958809Y-11670667D01*
X11968333Y-11632571D01*
X11977857Y-11613524D01*
X11987381Y-11604000D01*
X12006428Y-11594476D01*
X12196905Y-11594476D02*
X12215952Y-11594476D01*
X12235000Y-11604000D01*
X12244524Y-11613524D01*
X12254048Y-11632571D01*
X12263571Y-11670667D01*
X12263571Y-11718286D01*
X12254048Y-11756381D01*
X12244524Y-11775428D01*
X12235000Y-11784952D01*
X12215952Y-11794476D01*
X12196905Y-11794476D01*
X12177857Y-11784952D01*
X12168333Y-11775428D01*
X12158809Y-11756381D01*
X12149286Y-11718286D01*
X12149286Y-11670667D01*
X12158809Y-11632571D01*
X12168333Y-11613524D01*
X12177857Y-11604000D01*
X12196905Y-11594476D01*
X12387381Y-11594476D02*
X12406428Y-11594476D01*
X12425476Y-11604000D01*
X12435000Y-11613524D01*
X12444524Y-11632571D01*
X12454048Y-11670667D01*
X12454048Y-11718286D01*
X12444524Y-11756381D01*
X12435000Y-11775428D01*
X12425476Y-11784952D01*
X12406428Y-11794476D01*
X12387381Y-11794476D01*
X12368333Y-11784952D01*
X12358809Y-11775428D01*
X12349286Y-11756381D01*
X12339762Y-11718286D01*
X12339762Y-11670667D01*
X12349286Y-11632571D01*
X12358809Y-11613524D01*
X12368333Y-11604000D01*
X12387381Y-11594476D01*
X12539762Y-11794476D02*
X12539762Y-11661143D01*
X12539762Y-11680190D02*
X12549286Y-11670667D01*
X12568333Y-11661143D01*
X12596905Y-11661143D01*
X12615952Y-11670667D01*
X12625476Y-11689714D01*
X12625476Y-11794476D01*
X12625476Y-11689714D02*
X12635000Y-11670667D01*
X12654048Y-11661143D01*
X12682619Y-11661143D01*
X12701667Y-11670667D01*
X12711190Y-11689714D01*
X12711190Y-11794476D01*
X12806428Y-11794476D02*
X12806428Y-11661143D01*
X12806428Y-11680190D02*
X12815952Y-11670667D01*
X12835000Y-11661143D01*
X12863571Y-11661143D01*
X12882619Y-11670667D01*
X12892143Y-11689714D01*
X12892143Y-11794476D01*
X12892143Y-11689714D02*
X12901667Y-11670667D01*
X12920714Y-11661143D01*
X12949286Y-11661143D01*
X12968333Y-11670667D01*
X12977857Y-11689714D01*
X12977857Y-11794476D01*
X13368333Y-11584952D02*
X13196905Y-11842095D01*
X13625476Y-11594476D02*
X13644524Y-11594476D01*
X13663571Y-11604000D01*
X13673095Y-11613524D01*
X13682619Y-11632571D01*
X13692143Y-11670667D01*
X13692143Y-11718286D01*
X13682619Y-11756381D01*
X13673095Y-11775428D01*
X13663571Y-11784952D01*
X13644524Y-11794476D01*
X13625476Y-11794476D01*
X13606428Y-11784952D01*
X13596905Y-11775428D01*
X13587381Y-11756381D01*
X13577857Y-11718286D01*
X13577857Y-11670667D01*
X13587381Y-11632571D01*
X13596905Y-11613524D01*
X13606428Y-11604000D01*
X13625476Y-11594476D01*
X13777857Y-11775428D02*
X13787381Y-11784952D01*
X13777857Y-11794476D01*
X13768333Y-11784952D01*
X13777857Y-11775428D01*
X13777857Y-11794476D01*
X13911190Y-11594476D02*
X13930238Y-11594476D01*
X13949286Y-11604000D01*
X13958809Y-11613524D01*
X13968333Y-11632571D01*
X13977857Y-11670667D01*
X13977857Y-11718286D01*
X13968333Y-11756381D01*
X13958809Y-11775428D01*
X13949286Y-11784952D01*
X13930238Y-11794476D01*
X13911190Y-11794476D01*
X13892143Y-11784952D01*
X13882619Y-11775428D01*
X13873095Y-11756381D01*
X13863571Y-11718286D01*
X13863571Y-11670667D01*
X13873095Y-11632571D01*
X13882619Y-11613524D01*
X13892143Y-11604000D01*
X13911190Y-11594476D01*
X14044524Y-11594476D02*
X14168333Y-11594476D01*
X14101667Y-11670667D01*
X14130238Y-11670667D01*
X14149286Y-11680190D01*
X14158809Y-11689714D01*
X14168333Y-11708762D01*
X14168333Y-11756381D01*
X14158809Y-11775428D01*
X14149286Y-11784952D01*
X14130238Y-11794476D01*
X14073095Y-11794476D01*
X14054048Y-11784952D01*
X14044524Y-11775428D01*
X14263571Y-11794476D02*
X14301667Y-11794476D01*
X14320714Y-11784952D01*
X14330238Y-11775428D01*
X14349286Y-11746857D01*
X14358809Y-11708762D01*
X14358809Y-11632571D01*
X14349286Y-11613524D01*
X14339762Y-11604000D01*
X14320714Y-11594476D01*
X14282619Y-11594476D01*
X14263571Y-11604000D01*
X14254048Y-11613524D01*
X14244524Y-11632571D01*
X14244524Y-11680190D01*
X14254048Y-11699238D01*
X14263571Y-11708762D01*
X14282619Y-11718286D01*
X14320714Y-11718286D01*
X14339762Y-11708762D01*
X14349286Y-11699238D01*
X14358809Y-11680190D01*
X14530238Y-11661143D02*
X14530238Y-11794476D01*
X14482619Y-11584952D02*
X14435000Y-11727809D01*
X14558809Y-11727809D01*
X14625476Y-11594476D02*
X14625476Y-11632571D01*
X14701667Y-11594476D02*
X14701667Y-11632571D01*
X14996905Y-11870667D02*
X14987381Y-11861143D01*
X14968333Y-11832571D01*
X14958809Y-11813524D01*
X14949286Y-11784952D01*
X14939762Y-11737333D01*
X14939762Y-11699238D01*
X14949286Y-11651619D01*
X14958809Y-11623048D01*
X14968333Y-11604000D01*
X14987381Y-11575428D01*
X14996905Y-11565905D01*
X15063571Y-11613524D02*
X15073095Y-11604000D01*
X15092143Y-11594476D01*
X15139762Y-11594476D01*
X15158809Y-11604000D01*
X15168333Y-11613524D01*
X15177857Y-11632571D01*
X15177857Y-11651619D01*
X15168333Y-11680190D01*
X15054048Y-11794476D01*
X15177857Y-11794476D01*
X15292143Y-11680190D02*
X15273095Y-11670667D01*
X15263571Y-11661143D01*
X15254048Y-11642095D01*
X15254048Y-11632571D01*
X15263571Y-11613524D01*
X15273095Y-11604000D01*
X15292143Y-11594476D01*
X15330238Y-11594476D01*
X15349286Y-11604000D01*
X15358809Y-11613524D01*
X15368333Y-11632571D01*
X15368333Y-11642095D01*
X15358809Y-11661143D01*
X15349286Y-11670667D01*
X15330238Y-11680190D01*
X15292143Y-11680190D01*
X15273095Y-11689714D01*
X15263571Y-11699238D01*
X15254048Y-11718286D01*
X15254048Y-11756381D01*
X15263571Y-11775428D01*
X15273095Y-11784952D01*
X15292143Y-11794476D01*
X15330238Y-11794476D01*
X15349286Y-11784952D01*
X15358809Y-11775428D01*
X15368333Y-11756381D01*
X15368333Y-11718286D01*
X15358809Y-11699238D01*
X15349286Y-11689714D01*
X15330238Y-11680190D01*
X15606428Y-11794476D02*
X15606428Y-11594476D01*
X15692143Y-11794476D02*
X15692143Y-11689714D01*
X15682619Y-11670667D01*
X15663571Y-11661143D01*
X15635000Y-11661143D01*
X15615952Y-11670667D01*
X15606428Y-11680190D01*
X15815952Y-11794476D02*
X15796905Y-11784952D01*
X15787381Y-11775428D01*
X15777857Y-11756381D01*
X15777857Y-11699238D01*
X15787381Y-11680190D01*
X15796905Y-11670667D01*
X15815952Y-11661143D01*
X15844524Y-11661143D01*
X15863571Y-11670667D01*
X15873095Y-11680190D01*
X15882619Y-11699238D01*
X15882619Y-11756381D01*
X15873095Y-11775428D01*
X15863571Y-11784952D01*
X15844524Y-11794476D01*
X15815952Y-11794476D01*
X15996905Y-11794476D02*
X15977857Y-11784952D01*
X15968333Y-11765905D01*
X15968333Y-11594476D01*
X16149286Y-11784952D02*
X16130238Y-11794476D01*
X16092143Y-11794476D01*
X16073095Y-11784952D01*
X16063571Y-11765905D01*
X16063571Y-11689714D01*
X16073095Y-11670667D01*
X16092143Y-11661143D01*
X16130238Y-11661143D01*
X16149286Y-11670667D01*
X16158809Y-11689714D01*
X16158809Y-11708762D01*
X16063571Y-11727809D01*
X16235000Y-11784952D02*
X16254048Y-11794476D01*
X16292143Y-11794476D01*
X16311190Y-11784952D01*
X16320714Y-11765905D01*
X16320714Y-11756381D01*
X16311190Y-11737333D01*
X16292143Y-11727809D01*
X16263571Y-11727809D01*
X16244524Y-11718286D01*
X16235000Y-11699238D01*
X16235000Y-11689714D01*
X16244524Y-11670667D01*
X16263571Y-11661143D01*
X16292143Y-11661143D01*
X16311190Y-11670667D01*
X16387381Y-11870667D02*
X16396905Y-11861143D01*
X16415952Y-11832571D01*
X16425476Y-11813524D01*
X16435000Y-11784952D01*
X16444524Y-11737333D01*
X16444524Y-11699238D01*
X16435000Y-11651619D01*
X16425476Y-11623048D01*
X16415952Y-11604000D01*
X16396905Y-11575428D01*
X16387381Y-11565905D01*
M02*
